<?xml version="1.0" encoding="utf-8" ?>
<svg xmlns="http://www.w3.org/2000/svg" xmlns:xlink="http://www.w3.org/1999/xlink" width="6266" height="6266">
	<path fill="#2E9185" transform="scale(6.11944 6.11944)" d="M907.455 147.327C916.146 147.339 928.22 146.247 934.985 152.865C940.377 158.14 940.41 166.955 940.47 173.99L940.381 309.982L940.373 344.832C940.362 350.09 939.714 356.255 940.491 361.377C941.107 365.433 948.017 376.293 950.174 380.862C953.48 387.866 956.565 395.111 959.009 402.463C972.458 442.922 969.528 479.731 969.933 521.436L991.923 521.499L991.956 597.382C992.008 643.297 991.523 682.107 968.175 723.127Q965.298 728.255 962.074 733.173Q958.851 738.091 955.296 742.775Q951.742 747.459 947.874 751.888Q944.005 756.316 939.841 760.468C912.741 787.347 873.75 802.765 835.695 802.486C821.474 818.302 805.201 832.251 788.227 845.033Q785.258 847.282 782.247 849.476Q779.236 851.669 776.185 853.807Q773.134 855.944 770.044 858.024Q766.953 860.103 763.825 862.125Q760.696 864.147 757.531 866.111Q754.365 868.074 751.163 869.978Q747.962 871.882 744.725 873.726Q741.488 875.57 738.218 877.353Q734.947 879.137 731.644 880.859Q728.341 882.581 725.007 884.241Q721.672 885.902 718.307 887.5Q714.942 889.097 711.548 890.632Q708.154 892.167 704.732 893.639Q701.31 895.11 697.861 896.518Q694.412 897.925 690.937 899.268Q687.463 900.611 683.964 901.889Q680.465 903.167 676.943 904.379Q673.42 905.592 669.876 906.739Q666.332 907.885 662.767 908.966Q659.202 910.046 655.618 911.06Q652.033 912.074 648.431 913.021Q644.828 913.968 641.208 914.848Q637.589 915.727 633.953 916.54Q630.318 917.352 626.668 918.096Q623.018 918.84 619.354 919.516Q615.691 920.192 612.016 920.8Q608.341 921.408 604.655 921.947Q600.969 922.486 597.274 922.956Q593.579 923.427 589.875 923.828Q586.172 924.23 582.462 924.562Q578.751 924.895 575.036 925.158Q571.32 925.421 567.6 925.615Q560.505 926.026 553.399 926.193Q546.294 926.36 539.187 926.282Q532.08 926.204 524.98 925.882Q517.88 925.559 510.796 924.993Q503.711 924.426 496.65 923.616Q489.589 922.806 482.56 921.754Q475.531 920.701 468.542 919.407Q461.554 918.114 454.614 916.58C453.668 925.022 452.998 934.604 445.866 940.411C441.598 943.886 436.412 944.417 431.102 944.78C416.311 945.791 401.155 945.003 386.317 944.938L306.911 944.884L223.619 944.971C207.881 944.964 191.26 945.992 175.658 943.995C170.616 943.35 166.685 941.041 163.485 937.028C158.121 930.302 157.915 921.686 158.044 913.493C165.535 913.087 173.135 913.368 180.644 913.383L221.219 913.453L349.756 913.462C366.284 913.379 384.705 914.387 400.97 913.204C404.579 912.942 408.531 912.425 411.799 910.799C418.176 907.626 420.491 901.36 422.591 895.03C452.849 900.98 482.736 904.955 513.678 904.526Q517.477 904.483 521.274 904.365Q525.071 904.246 528.865 904.052Q532.659 903.859 536.448 903.589Q540.238 903.32 544.021 902.976Q547.804 902.632 551.58 902.212Q555.356 901.793 559.122 901.299Q562.889 900.804 566.645 900.235Q570.401 899.666 574.145 899.023Q577.889 898.379 581.62 897.662Q585.351 896.944 589.066 896.152Q592.782 895.361 596.481 894.495Q600.18 893.63 603.861 892.692Q607.542 891.753 611.204 890.741Q614.866 889.73 618.507 888.646Q622.148 887.562 625.767 886.406Q629.385 885.25 632.98 884.022Q636.576 882.794 640.146 881.495Q643.716 880.196 647.259 878.827Q650.802 877.457 654.318 876.017Q657.834 874.578 661.32 873.068Q664.806 871.559 668.262 869.981Q671.718 868.403 675.141 866.756Q678.565 865.11 681.955 863.396Q685.345 861.682 688.701 859.901Q692.056 858.119 695.376 856.272Q698.695 854.425 701.978 852.512Q705.26 850.599 708.503 848.621Q711.747 846.643 714.95 844.601Q718.154 842.559 721.316 840.454Q724.479 838.349 727.599 836.182Q730.719 834.015 733.795 831.786Q736.872 829.557 739.903 827.267C758.268 813.13 774.709 796.962 790.856 780.403Q794.033 780.5 797.211 780.517C836.553 780.638 878.704 762.96 906.493 735.222Q907.832 733.879 909.14 732.507Q910.449 731.135 911.728 729.735Q913.007 728.335 914.254 726.907Q915.502 725.48 916.719 724.025Q917.935 722.571 919.119 721.09Q920.303 719.609 921.455 718.103Q922.607 716.596 923.726 715.065Q924.844 713.534 925.929 711.979Q927.014 710.424 928.065 708.846Q929.115 707.267 930.131 705.667Q931.147 704.066 932.128 702.443Q933.109 700.82 934.054 699.176Q934.999 697.533 935.908 695.869Q936.818 694.205 937.69 692.521Q938.563 690.838 939.398 689.136Q940.234 687.434 941.032 685.714Q941.831 683.994 942.591 682.257Q943.352 680.52 944.074 678.767Q944.797 677.014 945.481 675.246Q946.165 673.477 946.81 671.694Q947.455 669.911 948.062 668.115Q948.668 666.318 949.235 664.509Q949.802 662.699 950.329 660.878Q950.856 659.057 951.344 657.224Q951.831 655.392 952.279 653.549Q952.726 651.707 953.133 649.855Q953.54 648.003 953.906 646.143Q954.273 644.282 954.599 642.414Q954.924 640.547 955.209 638.672Q955.494 636.797 955.738 634.917Q955.982 633.037 956.185 631.151Q956.388 629.266 956.55 627.377C958.438 606.575 957.573 585.549 957.511 564.69L957.654 472.918C949.566 472.956 941.453 473.366 933.369 473.634C933.068 468.636 932.689 463.408 933.469 458.438C934.269 453.347 935.89 448.507 935.971 443.308C936.501 409.185 924.436 378.226 907.498 349.298L907.455 147.327Z"/>
	<path fill="#070E36" transform="scale(6.11944 6.11944)" d="M205.065 246.77L209.768 241.654C284.331 161.797 383.965 114.814 493.441 111.257C516.039 110.522 538.392 113.546 560.92 114.441C571.279 114.852 581.752 114.569 592.121 114.575L649.536 114.593L806.777 114.585L857.748 114.58C866.809 114.581 876.059 114.179 885.096 114.758C891.067 115.14 896.822 116.01 901.286 120.406C908.342 127.354 907.488 138.247 907.455 147.327L907.498 349.298C924.436 378.226 936.501 409.185 935.971 443.308C935.89 448.507 934.269 453.347 933.469 458.438C932.689 463.408 933.068 468.636 933.369 473.634C941.453 473.366 949.566 472.956 957.654 472.918L957.511 564.69C957.573 585.549 958.438 606.575 956.55 627.377Q956.388 629.266 956.185 631.151Q955.982 633.037 955.738 634.917Q955.494 636.797 955.209 638.672Q954.924 640.547 954.599 642.414Q954.273 644.282 953.906 646.143Q953.54 648.003 953.133 649.855Q952.726 651.707 952.279 653.549Q951.831 655.392 951.344 657.225Q950.856 659.057 950.329 660.878Q949.802 662.7 949.235 664.509Q948.668 666.318 948.062 668.115Q947.455 669.911 946.81 671.694Q946.165 673.477 945.481 675.246Q944.797 677.014 944.074 678.767Q943.352 680.52 942.591 682.257Q941.831 683.994 941.032 685.714Q940.234 687.434 939.398 689.136Q938.563 690.838 937.69 692.521Q936.818 694.205 935.908 695.869Q934.999 697.533 934.054 699.176Q933.109 700.82 932.128 702.443Q931.147 704.066 930.131 705.667Q929.115 707.268 928.065 708.846Q927.014 710.424 925.929 711.979Q924.844 713.534 923.725 715.065Q922.607 716.596 921.455 718.103Q920.303 719.609 919.119 721.09Q917.935 722.57 916.718 724.025Q915.502 725.48 914.254 726.907Q913.007 728.335 911.728 729.735Q910.449 731.135 909.14 732.507Q907.832 733.879 906.493 735.222C878.704 762.96 836.553 780.638 797.211 780.517Q794.033 780.5 790.856 780.403C774.709 796.962 758.268 813.13 739.903 827.267Q736.872 829.557 733.795 831.786Q730.719 834.015 727.599 836.182Q724.479 838.349 721.317 840.454Q718.154 842.559 714.951 844.601Q711.747 846.643 708.503 848.621Q705.26 850.599 701.978 852.512Q698.696 854.425 695.376 856.272Q692.057 858.119 688.701 859.901Q685.345 861.682 681.955 863.396Q678.565 865.11 675.141 866.756Q671.718 868.403 668.262 869.981Q664.806 871.559 661.32 873.068Q657.834 874.578 654.318 876.017Q650.802 877.457 647.259 878.826Q643.716 880.196 640.146 881.495Q636.576 882.794 632.981 884.022Q629.385 885.249 625.767 886.406Q622.148 887.562 618.507 888.646Q614.866 889.73 611.204 890.741Q607.542 891.753 603.861 892.691Q600.18 893.63 596.481 894.495Q592.782 895.36 589.066 896.152Q585.351 896.944 581.62 897.662Q577.89 898.379 574.145 899.023Q570.401 899.666 566.645 900.235Q562.889 900.804 559.122 901.299Q555.356 901.793 551.58 902.212Q547.804 902.632 544.021 902.976Q540.238 903.32 536.448 903.589Q532.659 903.859 528.865 904.052Q525.071 904.246 521.274 904.365Q517.477 904.483 513.678 904.526C482.736 904.955 452.849 900.98 422.591 895.03C420.491 901.36 418.176 907.626 411.799 910.799C408.531 912.425 404.579 912.942 400.97 913.204C384.705 914.387 366.284 913.379 349.756 913.462L221.219 913.453L180.644 913.383C173.135 913.368 165.535 913.087 158.044 913.493C148.488 913.658 137.041 915.103 127.9 912.114C122.881 910.473 118.304 907.085 115.974 902.249C111.693 893.36 113.435 847.531 113.426 834.904L113.475 671.4C113.496 641.888 113.929 612.311 113.4 582.806C113.189 571.019 110.462 559.534 109.206 547.847Q107.443 530.907 107.128 513.878Q106.812 496.849 107.946 479.855C110.679 441.947 120.634 405.962 132.96 370.181L87.6103 290.961C79.0913 276.149 69.7002 261.996 62.3518 246.534L205.065 246.77Z"/>
	<path fill="#F5CEC9" transform="scale(6.11944 6.11944)" d="M738.374 240.088Q743.833 244.907 749.113 249.922C741.697 249.903 734.271 249.816 726.858 250.09C730.122 246.349 734.526 243.219 738.374 240.088Z"/>
	<path fill="#74194A" transform="scale(6.11944 6.11944)" d="M852.521 278.522C857.034 281.243 865.36 288.015 869.913 289.171C868.908 292.398 869.07 296.729 868.9 300.101C863.162 293.433 853.066 287.956 852.521 278.522Z"/>
	<path fill="#A1DDD3" transform="scale(6.11944 6.11944)" d="M294.562 775.821Q309.109 776.043 323.658 776.036C318.778 780.33 314.014 784.997 308.928 789.026L308.617 789.005C304.025 784.51 299.122 780.381 294.562 775.821Z"/>
	<path fill="#EF666F" transform="scale(6.11944 6.11944)" d="M876.423 294.39Q883.944 301.069 891.082 308.155Q890.699 318.5 890.611 328.851C886.235 322.22 881.675 315.907 876.501 309.877Q876.507 302.133 876.423 294.39Z"/>
	<path fill="#175560" transform="scale(6.11944 6.11944)" d="M683.218 597.616Q702.349 597.751 721.48 597.679L721.507 612.472C712.2 612.3 702.86 612.477 693.549 612.489C689.849 607.697 686.195 602.9 683.218 597.616Z"/>
	<path fill="#2E9185" transform="scale(6.11944 6.11944)" d="M207.307 767.749C214.617 773.016 225.437 786.714 233.027 793.751C257.076 816.048 284.035 836.767 312.669 852.85C308.742 853.085 304.731 853.512 300.802 853.482C292.446 846.719 282.46 841.641 273.836 835.074Q261.343 825.43 249.706 814.77C240.818 806.615 210.94 777.31 207.307 767.749Z"/>
	<path fill="#1A2F57" transform="scale(6.11944 6.11944)" d="M254.674 265.015L261.619 265.01C274.528 287.916 286.652 311.418 298.998 334.64C306.162 348.113 313.04 361.439 321.015 374.466L318.929 378.545C318.688 378.997 318.236 379.435 317.904 379.829C313.711 376.7 262.956 279.331 254.674 265.015Z"/>
	<path fill="#EF666F" transform="scale(6.11944 6.11944)" d="M684.476 249.981Q702.128 237.765 717.89 223.192C724.76 228.7 731.307 234.869 738.374 240.088C734.526 243.219 730.122 246.349 726.858 250.09C721.134 250.733 714.908 250.253 709.154 250.153Q696.816 249.966 684.476 249.981Z"/>
	<path fill="#F5CEC9" transform="scale(6.11944 6.11944)" d="M697.733 208.581C703.62 211.196 713.893 218.425 717.89 223.192Q702.128 237.765 684.476 249.981Q665.161 250.066 645.847 249.936C649.847 245.14 655.976 241.341 660.983 237.593C671.947 229.387 688.47 217.975 697.733 208.581Z"/>
	<path fill="#12BAA3" transform="scale(6.11944 6.11944)" d="M726.954 429.241C734.914 429.19 743.096 429.224 751.007 430.118C754.394 436.511 757.291 443.208 760.295 449.789Q737.524 449.455 714.75 449.503Q697.641 449.471 680.533 449.718C682.129 445.456 683.561 441.867 686.792 438.468C696.771 427.965 713.694 429.505 726.954 429.241Z"/>
	<path fill="#EF666F" transform="scale(6.11944 6.11944)" d="M242.596 692.891C242.231 705.334 241.666 717.814 242.489 730.252C256.078 745.197 269.366 760.543 283.118 775.317C286.857 776.045 290 776.536 293.811 775.851C288.706 780.13 283.552 784.438 278.072 788.233C270.474 779.38 259.831 770.001 251.55 761.324C237.903 747.025 225.633 731.983 213.628 716.306C224.177 709.478 232.336 700.041 242.596 692.891Z"/>
	<path fill="#D70D46" transform="scale(6.11944 6.11944)" d="M278.637 262.075Q290.518 262.342 302.401 262.306Q315.066 285.316 328.263 308.026C332.461 315.29 336.216 323.27 341.552 329.77Q335.378 342.568 328.652 355.084C323.832 343.365 316.797 331.914 310.711 320.78L278.637 262.075Z"/>
	<path fill="#1A2F57" transform="scale(6.11944 6.11944)" d="M676.273 566.724C690.665 567.207 705.131 566.705 719.529 566.523C732.838 566.355 746.162 566.475 759.473 566.501C759.784 574.509 759.938 581.83 757.587 589.59C757.473 589.713 757.379 589.857 757.246 589.958C754.027 592.415 684.442 591.057 676.25 591.021C676.026 583.244 675.095 574.42 676.273 566.724Z"/>
	<path fill="#EF666F" transform="scale(6.11944 6.11944)" d="M595.896 254.338C603.351 246.159 613.05 240.426 621.768 233.714Q647.603 213.908 673.037 193.59C677.573 196.14 682.12 198.678 686.513 201.471C690.2 203.815 693.877 206.57 697.733 208.581C688.47 217.975 671.947 229.387 660.983 237.593C655.976 241.341 649.847 245.14 645.847 249.936C635.913 249.938 626.165 249.609 616.263 250.728C609.387 251.505 602.696 253.121 595.896 254.338Z"/>
	<path fill="#D70D46" transform="scale(6.11944 6.11944)" d="M619.39 769.285C627.933 771.585 636.369 773.67 645.187 774.67C658.74 776.208 672.655 775.541 686.28 775.518L749.488 775.471C739.454 785.535 725.495 800.111 713.195 806.842C707.769 804.285 696.754 805.172 690.372 804.458Q686.166 803.988 681.992 803.29Q677.819 802.592 673.689 801.667Q669.559 800.743 665.486 799.595Q661.413 798.447 657.408 797.079Q653.403 795.711 649.479 794.128Q645.555 792.544 641.722 790.749Q637.89 788.953 634.161 786.952Q630.432 784.951 626.818 782.75C622.532 780.127 618.049 777.349 614.444 773.819C616.01 772.22 617.715 770.768 619.39 769.285Z"/>
	<path fill="#2E9185" transform="scale(6.11944 6.11944)" d="M174.505 724.039C178.988 729.745 182.986 735.885 187.259 741.756C192.038 748.322 197.116 754.687 202.122 761.08C199.615 765.824 200.932 841.225 200.941 853.137C192.148 853.425 183.286 853.254 174.485 853.277L174.505 724.039Z"/>
	<path fill="#F5CEC9" transform="scale(6.11944 6.11944)" d="M643.204 177.97C651.921 181.888 665.652 187.864 673.037 193.59Q647.603 213.908 621.768 233.714C613.05 240.426 603.351 246.159 595.896 254.338C588.403 257.836 579.483 259.946 571.567 262.477C575.375 257.364 579.241 252.285 582.833 247.017C576.142 246.976 569.445 247.07 562.754 247.11C560.174 246.933 557.557 247.135 554.975 247.231C563.178 239.047 573.616 232.259 582.737 225.101Q612.773 201.283 643.204 177.97Z"/>
	<path fill="#A1DDD3" transform="scale(6.11944 6.11944)" d="M202.122 761.08C203.895 763.275 205.639 765.472 207.307 767.749C210.94 777.31 240.818 806.615 249.706 814.77Q261.343 825.43 273.836 835.074C282.46 841.641 292.446 846.719 300.802 853.482L229.707 853.048C220.118 852.974 210.536 853.267 200.941 853.137C200.932 841.225 199.615 765.824 202.122 761.08Z"/>
	<path fill="#F8B260" transform="scale(6.11944 6.11944)" d="M686.103 152.538L807.889 152.272C828.542 152.275 849.37 151.726 870.003 152.344L870.024 243.149Q870.113 260.733 869.875 278.315C869.824 281.917 870.118 285.588 869.913 289.171C865.36 288.015 857.034 281.243 852.521 278.522Q852.003 223.878 852.51 169.238L769.5 169.221C751.788 169.16 733.795 168.449 716.125 169.599C706.551 163.476 696.373 157.377 686.103 152.538Z"/>
	<path fill="#F8B260" transform="scale(6.11944 6.11944)" d="M151.777 686.833C156.414 690.585 164.433 707.732 168.488 713.736L168.509 859.499L279.478 859.513C293.298 859.487 313.848 857.25 326.746 859.997C334.189 861.583 340.739 865.634 347.549 868.848C353.103 871.47 358.782 873.877 364.417 876.319C356.471 877.033 348.123 876.553 340.142 876.54L295.256 876.488L151.494 876.493L151.498 756.508C151.493 733.319 150.966 710 151.777 686.833Z"/>
	<path fill="#FBFAFA" transform="scale(6.11944 6.11944)" d="M626.627 130.091C640.845 129.919 655.044 130.24 669.26 130.251L768.003 130.268C809.118 130.266 850.416 129.397 891.502 130.522L891.498 247.28L891.306 279.562C891.34 289.083 891.781 298.65 891.082 308.155Q883.944 301.069 876.423 294.39C875.806 274.702 876.177 254.882 876.269 235.179L876.493 146.347L734.172 146.271L696.395 146.322C687.792 146.332 678.844 146.86 670.344 145.424C663.424 144.256 656.943 140.655 650.479 138.045Q638.782 133.38 626.627 130.091Z"/>
	<path fill="#1A2F57" transform="scale(6.11944 6.11944)" d="M685.932 384.25C698.366 382.781 713.617 383.247 725.424 387.507C735.924 391.295 742.48 398.575 747.139 408.512C728.508 408.716 708.691 406.369 690.318 410.09C679.463 412.289 670.216 417.902 664.113 427.255Q662.714 429.403 661.554 431.689Q660.394 433.975 659.487 436.372Q658.579 438.769 657.935 441.25Q657.29 443.731 656.916 446.267C654.608 461.352 655.996 481.553 656.065 497.145Q656.244 511.629 656.129 526.113C655.897 545.923 655.22 565.885 659.372 585.373C661.699 595.374 667.884 603.864 673.502 612.259C666.571 610.097 659.799 606.989 654.108 602.429C643.658 594.056 637.935 581.739 636.498 568.57C635.256 557.187 635.574 545.352 635.711 533.915L635.991 498.106L635.96 456.471C635.952 446.493 635.331 435.929 637.041 426.082C638.535 417.476 641.945 409.302 647.451 402.499C657.231 390.417 670.904 385.735 685.932 384.25Z"/>
	<path fill="#2E9185" transform="scale(6.11944 6.11944)" d="M725.134 175.397C737.767 174.063 751.345 174.973 764.085 174.971L846.512 175.248C846.388 201.021 846.993 226.855 846.435 252.618C846.427 260.409 846.604 268.26 846.055 276.033C845.963 276.817 845.859 276.986 845.45 277.627C844.595 277.509 828.665 266.762 826.376 265.501C822.022 263.103 817.664 261.303 812.867 260.013C809.267 254.351 804.125 249.048 799.703 243.998Q791.336 234.453 782.47 225.37Q773.603 216.288 764.262 207.694Q754.92 199.1 745.131 191.02Q735.342 182.94 725.134 175.397Z"/>
	<path fill="#A1DDD3" transform="scale(6.11944 6.11944)" d="M764.817 195.514C791.885 195.487 819.018 195.105 846.076 195.783L846.008 230.743C845.999 237.983 845.657 245.418 846.435 252.618C846.427 260.409 846.604 268.26 846.055 276.033C838.848 270.395 833.617 262.043 827.763 255.066C819.69 245.445 811.44 236.167 802.536 227.296C790.844 215.645 776.324 207.167 764.817 195.514Z"/>
	<path fill="#FBFAFA" transform="scale(6.11944 6.11944)" d="M129.077 634.291C129.317 634.501 129.582 634.686 129.796 634.922C131.748 637.066 144.89 673.523 145.419 677.489C146.481 685.446 145.882 693.927 145.822 701.961L145.615 740.83L145.483 882.489L304.21 882.491L345.607 882.477C359.826 882.429 374.687 880.837 388.53 884.702C392.868 885.913 403.138 887.958 405.259 891.716C405.31 893.643 404.397 895.128 403.569 896.816C402.292 897.353 400.926 897.624 399.56 897.825C390.591 899.148 380.607 898.306 371.511 898.307L317.264 898.339L192.063 898.498C175.81 898.505 159.498 898.933 143.256 898.708C140.587 898.671 133.404 898.796 131.369 897.071C131.172 896.904 130.813 896.491 130.661 896.297C129.058 894.243 128.801 891.578 128.645 889.067C128.047 879.45 128.489 869.664 128.53 860.024L128.669 808.412Q128.316 721.351 129.077 634.291Z"/>
	<path fill="#FBFAFA" transform="scale(6.11944 6.11944)" d="M145.244 391.979C149.888 399.789 154.641 407.553 158.329 415.874Q157.184 419.839 156.135 423.831Q155.087 427.822 154.136 431.838Q153.185 435.854 152.332 439.892Q151.479 443.93 150.724 447.988Q149.969 452.045 149.314 456.12Q148.658 460.195 148.101 464.284Q147.545 468.373 147.088 472.475Q146.631 476.577 146.274 480.688Q145.917 484.8 145.66 488.919Q145.404 493.038 145.247 497.162Q145.09 501.286 145.034 505.413Q144.978 509.54 145.022 513.667Q145.066 517.794 145.21 521.918Q145.355 526.043 145.599 530.162Q145.844 534.282 146.189 538.395Q146.534 542.508 146.979 546.611Q147.423 550.714 147.968 554.805Q148.512 558.896 149.156 562.972Q149.799 567.049 150.542 571.109Q151.285 575.168 152.126 579.209Q152.967 583.249 153.906 587.268Q154.845 591.287 155.882 595.282Q156.919 599.276 158.052 603.245Q159.185 607.213 160.415 611.153Q161.645 615.092 162.97 619.001Q164.295 622.909 165.715 626.785Q167.134 630.66 168.648 634.499Q170.161 638.339 171.768 642.14Q173.374 645.942 175.073 649.703Q176.771 653.465 178.561 657.184Q180.35 660.903 182.23 664.577Q184.109 668.251 186.077 671.879C191.461 681.796 197.31 691.495 203.087 701.187C205.329 706.239 209.222 712.907 213.628 716.306C225.633 731.983 237.903 747.025 251.55 761.324C259.831 770.001 270.474 779.38 278.072 788.233C282.162 793.059 287.246 799.272 292.632 802.623C303.546 811.792 314.331 820.914 326.159 828.912C337.064 836.286 360.677 848.996 368.613 857.419L368.054 857.947Q365.757 857.298 363.506 856.506C277.706 826.162 201.122 747.657 162.586 666.492C121.729 580.436 113.156 482.23 145.244 391.979Z"/>
	<path fill="#FBFAFA" transform="scale(6.11944 6.11944)" d="M233.874 246.569L232.1 246.421C232.005 244.859 233.394 243.563 234.395 242.43C242.824 232.888 253.79 224.693 263.576 216.597Q266.385 214.239 269.241 211.938Q272.096 209.637 274.997 207.394Q277.898 205.15 280.843 202.964Q283.788 200.779 286.776 198.653Q289.764 196.527 292.793 194.46Q295.823 192.394 298.894 190.389Q301.964 188.383 305.074 186.44Q308.184 184.496 311.332 182.615Q314.479 180.733 317.664 178.915Q320.849 177.097 324.07 175.343Q327.29 173.588 330.545 171.899Q333.8 170.209 337.088 168.584Q340.375 166.96 343.695 165.401Q347.015 163.843 350.365 162.351Q353.715 160.859 357.094 159.434Q360.473 158.009 363.88 156.652Q367.287 155.294 370.72 154.005Q374.153 152.716 377.611 151.496Q381.07 150.275 384.552 149.124Q388.034 147.973 391.538 146.892Q395.042 145.81 398.567 144.799Q402.092 143.788 405.637 142.847Q409.181 141.906 412.744 141.036Q416.306 140.166 419.885 139.367Q423.465 138.569 427.059 137.841Q430.654 137.114 434.262 136.459Q437.87 135.803 441.491 135.22Q445.111 134.637 448.743 134.126Q452.374 133.615 456.015 133.177Q459.656 132.738 463.305 132.372Q466.954 132.007 470.61 131.714Q474.265 131.421 477.926 131.201Q482.578 130.925 487.235 130.765Q491.893 130.605 496.553 130.561Q501.213 130.517 505.872 130.589Q510.532 130.662 515.188 130.85Q519.844 131.039 524.495 131.344Q529.145 131.648 533.786 132.069Q538.427 132.49 543.056 133.026Q547.685 133.562 552.3 134.214Q556.914 134.866 561.511 135.632Q566.107 136.399 570.683 137.28Q575.26 138.161 579.812 139.156Q584.365 140.151 588.891 141.259Q593.418 142.367 597.915 143.588Q602.413 144.808 606.878 146.141Q611.344 147.473 615.775 148.917Q620.206 150.361 624.599 151.914Q628.993 153.468 633.346 155.131Q637.699 156.793 642.01 158.564Q646.321 160.335 650.586 162.213Q654.851 164.091 659.068 166.075Q663.284 168.058 667.45 170.146Q671.617 172.235 675.729 174.426Q679.842 176.618 683.899 178.911Q687.955 181.205 691.953 183.599Q695.952 185.993 699.889 188.486Q703.826 190.978 707.7 193.569Q711.574 196.159 715.382 198.846Q719.19 201.532 722.93 204.312Q726.67 207.093 730.339 209.965Q734.008 212.838 737.604 215.802Q741.201 218.765 744.722 221.818Q748.244 224.87 751.688 228.009Q764.557 239.415 775.894 252.344C771.521 251.586 767.179 250.926 762.741 250.706C758.234 250.483 753.554 250.76 749.113 249.922Q743.833 244.907 738.374 240.088C731.307 234.869 724.76 228.7 717.89 223.192C713.893 218.425 703.62 211.196 697.733 208.581C693.877 206.57 690.2 203.815 686.513 201.471C682.12 198.678 677.573 196.14 673.037 193.59C665.652 187.864 651.921 181.888 643.204 177.97C626.895 171.545 610.451 165.061 593.492 160.535C519.381 140.756 436.087 144.582 365.393 175.272C335.61 188.202 308.426 204.052 282.731 223.936C273.683 230.939 265.788 239.715 256.382 246.196C248.917 246.416 241.301 245.971 233.874 246.569Z"/>
	<path fill="#EF666F" transform="scale(6.11944 6.11944)" d="M614.444 773.819C618.049 777.349 622.532 780.127 626.818 782.75Q630.432 784.951 634.161 786.952Q637.89 788.953 641.722 790.749Q645.555 792.544 649.479 794.128Q653.403 795.711 657.408 797.079Q661.413 798.447 665.486 799.595Q669.559 800.743 673.689 801.667Q677.819 802.592 681.992 803.29Q686.166 803.988 690.372 804.458C696.754 805.172 707.769 804.285 713.195 806.842C658.914 847.858 596.722 873.547 528.859 880.498C512.856 882.137 496.141 883.318 480.087 881.934C485.26 878.944 490.025 874.556 494.626 870.753Q504.596 862.39 514.759 854.262C548.089 827.609 580.717 799.955 614.444 773.819Z"/>
	<path fill="#1A2F57" transform="scale(6.11944 6.11944)" d="M476.661 401.788C477 402.541 476.975 402.419 477.22 403.256C478.569 407.874 477.565 421.553 477.545 427.135C477.507 437.911 479.155 449.736 476.707 460.299C474.561 469.555 468.088 478.548 463.65 486.914Q445.006 522.04 426.732 557.358C422.331 565.869 416.173 574.276 413.354 583.453C410.334 593.286 411.878 604.837 411.962 615.017L412.01 645.114L411.983 760.5L290.358 760.247C287.35 756.348 284.061 752.631 280.889 748.862Q274.386 741.161 267.569 733.738C282.182 732.98 297.045 733.467 311.682 733.452L387.557 733.169L387.459 623.01C387.384 609.202 386.746 595.426 387.077 581.612C387.18 577.315 387.031 572.585 387.847 568.372C389.446 560.116 402.928 537.864 407.476 529.488L436.779 475.44L458.617 434.361C464.415 423.365 470.045 412.323 476.661 401.788Z"/>
	<path fill="#1A2F57" transform="scale(6.11944 6.11944)" d="M912.997 495.003C920.999 494.87 929.01 494.67 937.01 494.998L937.495 565.881C937.525 581.588 937.768 597.349 936.345 613.01C932.72 652.901 918.014 690.538 889.491 719.31C865.013 744.001 829.609 760.095 795.213 764.453C786.92 765.504 778.55 765.535 770.205 765.54L694.764 765.157C674.645 765.164 654.232 765.883 634.166 764.243C622.962 763.327 612.274 760.736 601.458 757.852C598.066 756.947 590.897 752.963 588.036 754.173C585.436 752.61 582.834 751.194 580.102 749.875C568.796 742.744 557.498 733.645 548.135 724.122C548.465 724.143 548.796 724.157 549.125 724.185C556.981 724.869 566.693 729.949 574.374 732.49C582.531 735.189 591.237 736.83 599.746 738.028C620.167 740.902 640.619 740.599 661.179 740.498Q689.245 740.635 717.305 740.029C743.831 739.609 770.631 741.799 796.76 735.99Q800.797 735.13 804.779 734.043Q808.76 732.956 812.674 731.644Q816.587 730.332 820.42 728.8Q824.252 727.268 827.992 725.521Q831.731 723.773 835.365 721.817Q839 719.86 842.517 717.7Q846.034 715.54 849.423 713.183Q852.811 710.827 856.061 708.282C886.792 684.177 907.365 645.045 911.84 606.494C913.555 591.722 913.017 576.728 913 561.883L912.997 495.003Z"/>
	<path fill="#F5CEC9" transform="scale(6.11944 6.11944)" d="M456.957 789.45C457.945 787.899 478.444 772.698 481.528 770.248C494.485 759.95 507.684 749.963 520.603 739.617C528.443 733.338 535.983 726.461 544.077 720.535L548.135 724.122C557.498 733.645 568.796 742.744 580.102 749.875C582.834 751.194 585.436 752.61 588.036 754.173C590.719 756.062 593.51 757.556 596.422 759.058C604.001 762.728 611.706 765.874 619.39 769.285C617.715 770.768 616.01 772.22 614.444 773.819C580.717 799.955 548.089 827.609 514.759 854.262Q504.596 862.39 494.626 870.753C490.025 874.556 485.26 878.944 480.087 881.934C469.641 881.557 459.229 880.385 448.853 879.178Q436.562 877.265 424.309 875.121C417.741 873.162 410.694 872.285 404.026 870.558C391.65 867.353 379.784 862.983 368.054 857.947L368.613 857.419L368.937 857.479L369.435 857.2L369.437 857.64C376.488 852.957 384.524 845.586 391.408 840.182L442.023 800.35C446.608 797.739 449.935 793.221 454.871 790.992C456.028 790.47 456.197 790.519 456.957 789.45Z"/>
	<path fill="#EF666F" transform="scale(6.11944 6.11944)" d="M580.102 749.875C582.834 751.194 585.436 752.61 588.036 754.173C590.719 756.062 593.51 757.556 596.422 759.058C585.096 767.634 574.285 776.848 563.343 785.899C546.951 799.458 530.522 813.016 513.916 826.311L475.419 856.885C466.737 863.696 455.798 870.576 448.853 879.178Q436.562 877.265 424.309 875.121C440.986 862.749 456.986 849.454 473.212 836.5Q503.897 812.184 534.324 787.548C549.565 774.992 564.593 762.092 580.102 749.875Z"/>
	<path fill="#F5CEC9" transform="scale(6.11944 6.11944)" d="M448.853 879.178C455.798 870.576 466.737 863.696 475.419 856.885L513.916 826.311C530.522 813.016 546.951 799.458 563.343 785.899C574.285 776.848 585.096 767.634 596.422 759.058C604.001 762.728 611.706 765.874 619.39 769.285C617.715 770.768 616.01 772.22 614.444 773.819C580.717 799.955 548.089 827.609 514.759 854.262Q504.596 862.39 494.626 870.753C490.025 874.556 485.26 878.944 480.087 881.934C469.641 881.557 459.229 880.385 448.853 879.178Z"/>
	<path fill="#EF666F" transform="scale(6.11944 6.11944)" d="M158.329 415.874C162.092 421.809 165.257 428.228 168.646 434.391L186.666 467.051L224.807 536.135C228.019 541.95 241.48 564.253 242.366 569.242C243.554 575.933 242.471 587.604 242.474 594.745C242.484 619.099 241.788 643.689 242.582 668.013Q242.708 680.452 242.596 692.891C232.336 700.041 224.177 709.478 213.628 716.306C209.222 712.907 205.329 706.239 203.087 701.187C197.31 691.495 191.461 681.796 186.077 671.879Q184.109 668.251 182.23 664.577Q180.35 660.903 178.561 657.184Q176.771 653.465 175.073 649.703Q173.374 645.942 171.768 642.14Q170.161 638.339 168.648 634.499Q167.134 630.66 165.715 626.785Q164.295 622.909 162.97 619.001Q161.645 615.092 160.415 611.153Q159.185 607.213 158.052 603.245Q156.919 599.276 155.882 595.281Q154.845 591.287 153.906 587.268Q152.967 583.249 152.126 579.209Q151.285 575.168 150.542 571.109Q149.799 567.049 149.156 562.972Q148.512 558.896 147.968 554.805Q147.423 550.714 146.979 546.611Q146.534 542.508 146.189 538.395Q145.844 534.282 145.599 530.162Q145.355 526.043 145.21 521.918Q145.066 517.793 145.022 513.667Q144.978 509.54 145.034 505.413Q145.09 501.286 145.247 497.162Q145.404 493.038 145.66 488.919Q145.917 484.8 146.274 480.688Q146.631 476.577 147.088 472.475Q147.545 468.373 148.101 464.284Q148.658 460.195 149.314 456.12Q149.969 452.045 150.724 447.988Q151.479 443.93 152.332 439.892Q153.185 435.854 154.136 431.838Q155.087 427.822 156.135 423.831Q157.184 419.839 158.329 415.874Z"/>
	<path fill="#F5CEC9" transform="scale(6.11944 6.11944)" d="M242.582 668.013Q242.708 680.452 242.596 692.891C232.336 700.041 224.177 709.478 213.628 716.306C209.222 712.907 205.329 706.239 203.087 701.187C206.877 697.596 211.141 694.336 215.083 690.888C224.084 683.013 232.956 675.129 242.582 668.013Z"/>
	<path fill="#D70D46" transform="scale(6.11944 6.11944)" d="M477.949 498.166C478.034 527.901 478.388 557.813 477.601 587.532C478.241 597.438 478.515 607.23 480.271 617.037C486.483 651.726 504.82 687.402 531.486 710.854C535.493 714.378 539.706 717.492 544.077 720.535C535.983 726.461 528.443 733.338 520.603 739.617C507.684 749.963 494.485 759.95 481.528 770.248C478.444 772.698 457.945 787.899 456.957 789.45C456.197 790.519 456.028 790.47 454.871 790.992C449.935 793.221 446.608 797.739 442.023 800.35L391.408 840.182C384.524 845.586 376.488 852.957 369.437 857.64L369.435 857.2L368.937 857.479L368.613 857.419C360.677 848.996 337.064 836.286 326.159 828.912C314.331 820.914 303.546 811.792 292.632 802.623C287.246 799.272 282.162 793.059 278.072 788.233C283.552 784.438 288.706 780.13 293.811 775.851L294.562 775.821C299.122 780.381 304.025 784.51 308.617 789.005L308.928 789.026C314.014 784.997 318.778 780.33 323.658 776.036C335.097 777.332 346.911 776.045 358.396 776.005L429.447 775.991L429.481 642.73C429.474 630.703 427.375 600.5 430.065 590.515C432.316 582.161 441.539 566.907 445.772 558.79C456.358 538.486 466.426 517.969 477.949 498.166Z"/>
	<path fill="#EF666F" transform="scale(6.11944 6.11944)" d="M293.811 775.851L294.562 775.821C299.122 780.381 304.025 784.51 308.617 789.005L308.928 789.026Q311.935 792.085 315.238 794.821Q318.541 797.558 322.106 799.944C362.055 800.305 402.094 799.176 442.023 800.35L391.408 840.182C384.524 845.586 376.488 852.957 369.437 857.64L369.435 857.2L368.937 857.479L368.613 857.419C360.677 848.996 337.064 836.286 326.159 828.912C314.331 820.914 303.546 811.792 292.632 802.623C287.246 799.272 282.162 793.059 278.072 788.233C283.552 784.438 288.706 780.13 293.811 775.851Z"/>
	<path fill="#F5CEC9" transform="scale(6.11944 6.11944)" d="M293.811 775.851L294.562 775.821C299.122 780.381 304.025 784.51 308.617 789.005C303.37 793.583 298.144 798.378 292.632 802.623C287.246 799.272 282.162 793.059 278.072 788.233C283.552 784.438 288.706 780.13 293.811 775.851Z"/>
	<path fill="#EF666F" transform="scale(6.11944 6.11944)" d="M477.601 587.532C478.241 597.438 478.515 607.23 480.271 617.037C486.483 651.726 504.82 687.402 531.486 710.854C535.493 714.378 539.706 717.492 544.077 720.535C535.983 726.461 528.443 733.338 520.603 739.617C507.684 749.963 494.485 759.95 481.528 770.248C478.444 772.698 457.945 787.899 456.957 789.45C457.303 775.871 456.998 762.21 456.998 748.623L457.014 666.444Q457.05 654.437 456.907 642.43C456.85 635.827 456.278 628.746 457.727 622.263C459.649 613.659 471.513 594.038 477.601 587.532Z"/>
	<path fill="#EF666F" transform="scale(6.11944 6.11944)" d="M256.382 246.196C265.788 239.715 273.683 230.939 282.731 223.936C308.426 204.052 335.61 188.202 365.393 175.272C436.087 144.582 519.381 140.756 593.492 160.535C610.451 165.061 626.895 171.545 643.204 177.97Q612.773 201.283 582.737 225.101C573.616 232.259 563.178 239.047 554.975 247.231C557.557 247.135 560.174 246.933 562.754 247.11C540.262 249.073 513.696 247.508 490.87 247.466C455.854 247.401 419.694 248.256 384.821 247.2C370.578 274.457 357.153 303.415 341.552 329.77C336.216 323.27 332.461 315.29 328.263 308.026Q315.066 285.316 302.401 262.306Q290.518 262.342 278.637 262.075C275.494 257.113 272.522 252.023 269.489 246.992C257.948 247.194 245.295 248.042 233.874 246.569C241.301 245.971 248.917 246.416 256.382 246.196Z"/>
	<path fill="#67C2D1" transform="scale(6.11944 6.11944)" d="M92.906 264.507L236.531 264.495C255.313 298.283 273.316 332.629 291.561 366.718C300.166 382.796 308.265 399.112 317.599 414.787L396.468 264.481Q468.457 265.448 540.451 265.011L431.81 469.161L395.177 537.362C390.83 545.413 384.446 553.559 381.65 562.268C378.461 572.2 380.544 618.352 380.602 631.811L380.666 727.508L259.483 727.221L259.473 613.215L259.682 582.69C259.695 576.863 260.18 570.173 259.009 564.451C256.976 554.516 227.957 506.266 220.674 493.129L145.99 358.261C128.363 326.965 110.103 296.048 92.906 264.507Z"/>
	<path fill="#070E36" transform="scale(6.11944 6.11944)" d="M410.108 286.124C419.646 287.03 429.7 286.559 439.286 286.622L505.402 286.499C497.995 297.476 491.74 311.121 485.42 322.909L447.359 393.917L377.793 523.507C374.867 528.961 358.725 556.972 357.856 560.892C356.47 567.144 357.539 592.427 357.537 600.392L357.505 703.5L280.514 703.5L280.431 603.583C280.416 591.968 282.439 568.875 279.511 558.749C277.345 551.255 272.741 544.154 269.02 537.352L251.884 506.288C241.684 486.969 230.783 467.949 220.231 448.816L167.994 354.234L145.266 314.187C140.014 304.986 134.566 295.879 130.1 286.261C161.349 286.958 192.685 286.5 223.944 286.476L317.721 459.184Q336.112 426.265 353.597 392.856L410.108 286.124Z"/>
	<path fill="#FBE7C7" transform="scale(6.11944 6.11944)" d="M414.165 291.666C441.261 292.049 468.387 291.61 495.488 291.798C484.978 312.63 473.686 333.137 462.621 353.678L414.041 444.277C403.504 462.289 394.356 481.274 384.407 499.635Q377.077 513.253 369.584 526.782C365.053 534.849 354.608 550.854 352.687 559.384C350.311 569.929 352.267 590.207 352.283 601.886L352.064 698.018L285.993 698.018L285.977 599.078C285.995 587.536 288.064 569.433 285.761 558.784C283.706 549.284 271.879 530.799 266.782 521.49L229.729 454.288L171.227 348.387C160.73 329.538 150.475 310.483 139.276 292.039L145.906 291.744L219.946 291.701C237.052 321.014 252.644 351.125 268.721 381.003C284.999 411.253 301.711 441.203 317.408 471.77C322.683 463.425 327.151 454.597 331.791 445.89L351.667 408.605L414.165 291.666Z"/>
	<path fill="#67C2D1" transform="scale(6.11944 6.11944)" d="M630.932 265.712C645.571 264.87 660.441 265.696 675.108 265.68C698.668 265.654 722.271 265.161 745.825 265.496C786.194 266.071 816.72 278.394 844.941 307.495C862.272 325.366 880.26 356.248 883.601 381.423C885.039 392.258 884.176 403.601 883.992 414.509L754.779 414.762C752.622 406.77 750.53 399.255 744.71 393.094C733.531 381.26 717.189 378.01 701.519 377.688C681.706 377.28 660.891 379.905 646.092 394.361C639.18 401.113 633.864 410.38 631.634 419.797C627.913 435.511 629.49 459.267 629.488 475.931L629.128 545.137C629.005 567.347 630.181 588.402 646.843 605.017C664.658 622.781 688.954 619.188 711.914 619.018C727.433 618.903 742.523 619.057 754.126 607.091C767.21 593.597 766.169 577.761 765.991 560.229Q718.745 559.792 671.496 560.013L671.479 470.006Q720.108 469.408 768.737 469.987L906.527 469.997L906.528 547.086C906.622 585.407 908.722 617.861 891.382 653.525C886.001 664.593 879.555 674.845 871.531 684.203C847.048 712.756 813.197 728.89 775.808 731.664C766.454 732.357 757.06 732.076 747.687 732.032L711.636 732.007L662.731 732.02C642.359 732.066 620.923 732.891 600.995 728.119Q597.071 727.21 593.211 726.061Q589.351 724.912 585.568 723.527Q581.786 722.143 578.096 720.528Q574.407 718.913 570.824 717.073Q567.24 715.234 563.777 713.177Q560.314 711.121 556.984 708.855Q553.655 706.589 550.471 704.122Q547.287 701.655 544.261 698.997C514.028 672.769 496.99 634.444 494.247 594.865C493.206 579.834 493.477 564.776 493.485 549.719L493.552 488.846L493.769 437.31C493.75 415.965 492.773 394.271 497.489 373.294Q497.94 371.237 498.457 369.196Q498.974 367.155 499.556 365.132Q500.137 363.108 500.783 361.104Q501.429 359.1 502.139 357.118Q502.848 355.135 503.62 353.177Q504.393 351.218 505.227 349.285Q506.062 347.352 506.957 345.446Q507.853 343.541 508.809 341.665Q509.765 339.789 510.78 337.944Q511.795 336.1 512.869 334.288Q513.943 332.477 515.073 330.701Q516.204 328.925 517.391 327.186Q518.578 325.447 519.82 323.747Q521.062 322.046 522.357 320.386Q523.652 318.726 525 317.109Q526.347 315.491 527.746 313.917C554.505 283.429 591.011 268.349 630.932 265.712Z"/>
	<path fill="#070E36" transform="scale(6.11944 6.11944)" d="M626.374 288.232L702.172 288.39C723.474 288.314 753.964 286.287 773.958 290.929C791.099 294.91 806.779 303.428 820.042 314.89C843.638 335.279 860.253 364.993 862.572 396.25Q818.252 395.759 773.929 395.998C769.897 388.681 765.559 381.675 759.613 375.731C743.32 359.446 720.843 354.73 698.537 354.7C672.689 354.665 649.646 359.549 630.813 378.462C621.012 388.305 614.149 400.008 610.637 413.471C606.822 428.095 607.436 443.345 607.446 458.324L607.488 493.168L607.085 548.222C607.155 575.42 610.844 600.783 631.113 620.793C654.048 643.435 678.48 642.294 708.408 642.243C731.861 642.204 752.401 640.691 769.78 623.069C787.041 605.566 788.617 589.976 788.57 566.736L788.509 537.808C777.842 537.477 767.09 537.746 756.415 537.744L694.025 537.778L694.039 515.375L694.155 493.499L884.136 493.493L884.374 555.512C884.603 599.75 885.996 634.628 854.628 670.644C835.59 692.503 807.965 707.553 778.828 709.345C755.17 710.8 730.943 709.735 707.224 709.75L659.765 709.768C641.784 709.765 623.252 710.48 605.641 706.344Q602.288 705.556 598.991 704.558Q595.694 703.56 592.466 702.357Q589.239 701.153 586.094 699.748Q582.949 698.344 579.898 696.744Q576.848 695.144 573.904 693.355Q570.961 691.566 568.136 689.595Q565.311 687.624 562.616 685.479Q559.921 683.334 557.366 681.023C531.797 658.208 517.578 626.646 515.617 592.592C514.882 579.816 515.177 566.947 515.151 554.152L515.097 492.979L515.099 439.591C515.086 419.495 514.358 398.989 518.971 379.284Q519.835 375.645 520.923 372.066Q522.011 368.488 523.32 364.984Q524.628 361.48 526.152 358.064Q527.676 354.648 529.409 351.333Q531.142 348.019 533.078 344.818Q535.014 341.618 537.145 338.544Q539.277 335.47 541.595 332.535Q543.913 329.6 546.409 326.814Q547.356 325.751 548.329 324.712Q549.302 323.672 550.301 322.657Q551.299 321.642 552.322 320.652Q553.345 319.662 554.392 318.697Q555.439 317.732 556.51 316.793Q557.58 315.854 558.673 314.942Q559.767 314.03 560.882 313.145Q561.997 312.26 563.134 311.403Q564.271 310.545 565.428 309.716Q566.585 308.887 567.763 308.086Q568.94 307.286 570.137 306.515Q571.334 305.743 572.549 305.002Q573.765 304.26 574.998 303.549Q576.231 302.837 577.482 302.156Q578.732 301.475 579.999 300.825Q581.265 300.175 582.548 299.556Q583.83 298.938 585.127 298.351Q586.424 297.764 587.736 297.209Q589.047 296.654 590.371 296.131Q591.696 295.609 593.032 295.119Q594.369 294.629 595.718 294.172Q597.066 293.716 598.426 293.292Q599.785 292.868 601.154 292.479Q602.524 292.089 603.902 291.732Q605.281 291.376 606.668 291.054Q608.054 290.732 609.449 290.444Q610.843 290.156 612.244 289.902Q613.645 289.648 615.052 289.429Q616.459 289.21 617.871 289.026Q619.282 288.841 620.698 288.691Q622.114 288.542 623.533 288.427Q624.953 288.312 626.374 288.232Z"/>
	<path fill="#FBE7C7" transform="scale(6.11944 6.11944)" d="M621.863 294.671C627.453 293.425 650.373 294.482 658.167 294.478L720.151 294.293C736.07 294.214 752.306 293.442 768.086 295.901C779.05 297.61 789.645 301.774 799.198 307.369C831.342 326.194 847.56 354.966 856.85 389.997Q817.517 390.497 778.184 390.011C775.193 384.22 771.289 378.577 766.801 373.843C750.779 356.942 727.985 349.075 705.099 348.526C676.361 347.837 649.305 351.964 627.755 372.748C616.736 383.376 608.616 396.439 604.582 411.25C599.539 429.769 601.447 455.358 601.467 474.811Q601.718 509.534 601.12 544.253C600.639 575.795 603.577 601.557 626.749 625.285C642.85 641.773 662.87 648.419 685.578 648.634C694.297 648.716 703.026 648.538 711.746 648.522C736.876 648.477 754.089 647.25 773.115 628.351C792.713 608.885 794.615 590.291 794.718 563.905L794.785 531.743L726.798 531.508L700.493 531.496L700.487 499L795.928 498.918C823.235 498.784 850.677 498.104 877.961 499.317L878.06 560.019C878.098 578.427 879.205 597.63 875.319 615.727Q874.702 618.56 873.943 621.359Q873.183 624.157 872.284 626.914Q871.384 629.67 870.346 632.378Q869.308 635.085 868.134 637.737Q866.96 640.389 865.654 642.977Q864.348 645.566 862.912 648.086Q861.477 650.605 859.916 653.049Q858.355 655.492 856.672 657.854C840.018 681.171 814.69 697.873 786.25 702.499C776.435 704.096 766.26 703.571 756.35 703.549L716.641 703.501L660.552 703.516C644.487 703.549 628.549 704.409 612.639 701.483Q609.763 700.94 606.921 700.237Q604.079 699.533 601.282 698.672Q598.484 697.811 595.739 696.795Q592.993 695.778 590.309 694.61Q587.625 693.442 585.011 692.125Q582.396 690.809 579.859 689.348Q577.323 687.887 574.872 686.286Q572.421 684.686 570.063 682.951Q568.907 682.112 567.772 681.245Q566.637 680.379 565.523 679.484Q564.41 678.589 563.319 677.667Q562.228 676.745 561.161 675.796Q560.093 674.847 559.049 673.872Q558.005 672.898 556.986 671.897Q555.966 670.897 554.972 669.871Q553.978 668.846 553.009 667.797Q552.04 666.747 551.098 665.674Q550.155 664.6 549.24 663.504Q548.324 662.408 547.436 661.289Q546.548 660.171 545.688 659.031Q544.827 657.89 543.995 656.729Q543.164 655.568 542.361 654.387Q541.558 653.205 540.785 652.004Q540.011 650.804 539.268 649.584Q538.525 648.364 537.812 647.127Q537.099 645.889 536.417 644.634Q535.735 643.379 535.084 642.108Q534.433 640.836 533.814 639.549Q533.195 638.262 532.607 636.96Q532.02 635.658 531.466 634.342Q530.911 633.026 530.389 631.696Q529.867 630.367 529.378 629.025Q528.889 627.683 528.433 626.329Q527.978 624.975 527.556 623.611Q527.134 622.246 526.746 620.872Q526.357 619.497 526.003 618.113Q525.65 616.73 525.33 615.338Q525.01 613.945 524.725 612.546Q524.44 611.146 524.19 609.74Q523.939 608.334 523.724 606.922C520.954 588.969 521.643 570.507 521.682 552.404L521.75 487.921L521.746 439.575C521.598 422.449 520.625 404.608 523.647 387.657C526.765 370.165 533.464 353.952 543.989 339.614C563.498 313.039 589.782 299.539 621.863 294.671Z"/>
</svg>
