<?xml version="1.0" encoding="utf-8" ?>
<svg xmlns="http://www.w3.org/2000/svg" xmlns:xlink="http://www.w3.org/1999/xlink" width="2923" height="2923">
	<path fill="#F6F1EE" transform="scale(2.85545 2.85545)" d="M847.698 934.445C848.789 934.461 849.922 934.476 850.991 934.712C853.181 935.197 855.566 936.547 856.794 938.469C858.822 941.643 858.319 944.334 857.516 947.768C855.688 949.614 853.992 950.957 851.699 952.195C850.265 952.175 848.728 952.114 847.332 951.748C844.825 951.092 842.551 949.318 841.345 947.022Q841.156 946.653 841.006 946.267Q840.856 945.881 840.747 945.481Q840.639 945.081 840.572 944.672Q840.505 944.263 840.482 943.85Q840.458 943.436 840.478 943.022Q840.497 942.609 840.56 942.199Q840.622 941.789 840.727 941.389Q840.832 940.988 840.978 940.6C842.235 937.264 844.613 935.894 847.698 934.445Z"/>
	<path fill="#F6F1EE" transform="scale(2.85545 2.85545)" d="M768.586 237.489Q769.455 237.421 770.327 237.398C772.547 237.35 774.325 237.746 775.912 239.395C778.617 242.208 777.753 248.399 777.596 251.927C782.466 251.886 788.192 251.351 792.241 254.653C793.358 255.564 794.453 256.985 794.432 258.493C794.413 259.794 793.631 260.946 792.726 261.821C788.805 265.614 782.639 264.98 777.632 264.925C777.684 268.111 778.023 271.721 777.498 274.855C777.033 277.632 776.014 279.037 773.785 280.68C773.109 280.787 772.435 280.905 771.747 280.911C769.848 280.928 767.814 280.419 766.477 278.993C763.45 275.763 764.427 269.184 764.553 265.087C760.185 265.11 754.981 265.494 751.357 262.586C750.096 261.575 749.184 260.159 749.169 258.494C749.155 257.06 749.84 255.756 750.853 254.783C754.481 251.296 760.188 251.955 764.767 252.16C764.685 249.714 764.53 247.2 764.705 244.759C764.941 241.444 766.137 239.61 768.586 237.489Z"/>
	<path fill="#F6F1EE" transform="scale(2.85545 2.85545)" d="M508.102 935.175C519.544 934.861 531.008 935.029 542.455 934.933C549.265 934.876 556.658 934.214 563.414 934.977C565.785 935.245 568.133 935.757 570.175 937.047C572.137 938.286 573.57 940.181 574.014 942.481C574.471 944.839 573.791 947.164 572.405 949.09C570.834 951.273 569.244 952.188 566.625 952.579C555.31 952.553 543.982 952.439 532.668 952.576C524.93 952.67 517.073 953.306 509.347 952.695C507.434 952.544 505.623 952.305 503.947 951.295C501.864 950.039 500.88 948.102 500.343 945.796C499.806 943.492 499.836 941.052 501.166 939.011C502.861 936.412 505.21 935.756 508.102 935.175Z"/>
	<path fill="#F6F1EE" transform="scale(2.85545 2.85545)" d="M602.475 934.631C613.501 933.993 625.045 934.835 636.134 934.881L705.77 934.936L774.893 934.906C786.387 934.878 797.973 934.045 809.45 934.804C813.07 935.044 816.994 935.585 819.791 938.13C821.211 939.422 822.113 941.229 822.133 943.166C822.154 945.323 821.151 947.417 819.659 948.94C816.11 952.561 811.298 952.337 806.625 952.494C793.361 952.887 780.038 952.534 766.764 952.535L678.25 952.074C647.438 951.787 616.595 952.669 585.795 952.104C589.401 946.54 596.881 938.028 602.475 934.631Z"/>
	<path fill="#F6F1EE" transform="scale(2.85545 2.85545)" d="M437.847 143.722C443.65 143.052 449.95 143.47 455.811 143.466L490.059 143.464L545.476 143.445C555.735 143.437 566.095 143.141 576.343 143.548C603.521 144.625 627.99 154.802 646.547 175.096C666.859 197.309 669.708 223.399 669.592 252.189C669.557 261.062 669.683 269.98 669.297 278.844Q669.928 279.147 670.553 279.46C685.392 286.913 696.706 297.37 701.981 313.461C707.769 331.115 707.546 367.517 699.092 384.099C691.893 398.22 679.374 406.342 664.642 411.114C663.975 418.872 662.142 426.95 660.249 434.506C651.086 471.066 631.829 497.628 603.659 521.781C617.998 522.029 632.274 521.426 646.606 521.448C678.983 521.499 706.269 528.312 730.648 550.839C738.303 557.913 745.047 565.594 750.197 574.695C758.544 589.446 763.609 606.321 769.348 622.21L788.687 674.467C791.555 682.378 799.08 708.189 803.422 713.408C805.704 716.152 809.18 718.03 811.691 720.629C822.528 731.842 823.871 747.551 823.501 762.279C826.398 767.126 829.706 771.97 832.071 777.099C837.922 789.796 839.519 806.064 837.354 819.792C834.68 836.745 826.031 853.827 811.96 864.06L889.644 863.955C900.954 863.927 912.842 862.892 924.089 863.745C927.768 864.024 933.475 864.405 936.327 866.893C937.917 868.281 938.917 870.37 938.902 872.489C938.886 874.846 937.903 877.045 936.239 878.699C934.169 880.756 931.735 881.194 928.922 881.345C917.993 881.933 906.546 881.123 895.566 881.096L819.075 881.044L583.25 881.458L252.115 881.109L149.189 881.309C131.664 881.389 113.748 882.243 96.2576 881.515C92.9076 881.376 89.2528 881.077 86.689 878.664Q86.3913 878.38 86.1237 878.068Q85.8561 877.755 85.6213 877.418Q85.3865 877.08 85.1869 876.72Q84.9873 876.361 84.8248 875.983Q84.6624 875.605 84.5388 875.212Q84.4153 874.82 84.3318 874.417Q84.2484 874.015 84.2058 873.605Q84.1633 873.196 84.1622 872.785Q84.1529 872.319 84.1917 871.855Q84.2304 871.391 84.3169 870.934Q84.4034 870.476 84.5366 870.03Q84.6698 869.584 84.8484 869.154Q85.027 868.723 85.249 868.314Q85.4711 867.905 85.7341 867.52Q85.9972 867.136 86.2986 866.781Q86.5999 866.426 86.9363 866.104C88.487 864.639 90.6413 863.677 92.7649 863.457C96.7824 863.042 101.219 863.509 105.267 863.565C112.571 863.667 119.882 863.602 127.187 863.627L209.298 863.872C205.144 860.818 201.551 857.132 198.406 853.052C184.043 834.42 178.812 808.496 185.929 785.916C188.183 778.764 192.4 772.525 194.839 765.506C196.758 759.981 196.892 754.143 197.665 748.396C198.44 742.633 199.55 736.767 201.789 731.373C205.749 721.837 213.776 714.785 217.773 705.189L252.822 618.987C258.738 604.669 264.039 589.444 271.878 576.053Q273.286 573.695 274.807 571.409Q276.328 569.123 277.958 566.913Q279.589 564.704 281.325 562.577Q283.061 560.449 284.899 558.409Q286.737 556.369 288.672 554.421Q290.608 552.472 292.635 550.621Q294.663 548.769 296.779 547.019Q298.895 545.268 301.093 543.623C316.818 531.697 337.026 524.374 356.597 522.379C366.591 521.36 376.788 521.599 386.823 521.576C396.349 521.555 406.191 521.118 415.64 522.39Q411.904 519.502 408.237 516.526C377.45 491.198 357.068 450.393 353.194 410.866Q351.835 410.468 350.507 409.976C335.761 404.61 322.836 393.699 316.276 379.314C309.189 363.77 308.91 326.185 314.953 310.138C320.746 294.754 332.602 286.546 347.029 280.065Q346.427 266.213 346.468 252.349C346.455 223.625 349.906 197.49 369.799 175.193C388.009 154.782 410.849 145.19 437.847 143.722Z"/>
	<path fill="#191919" transform="scale(2.85545 2.85545)" d="M436.467 162.71C441.95 162.017 447.922 162.589 453.442 162.661C460.677 162.756 467.918 162.572 475.154 162.539L570.714 162.477C594.788 162.489 614.448 168.052 631.807 185.619C651.958 206.011 651.613 228.57 651.584 255.355L651.503 294.885C660.132 295.805 668.519 298.33 675.095 304.235C683.095 311.42 686.973 321.831 687.465 332.407C687.702 337.499 687.585 342.637 687.571 347.734C687.535 360.867 687.059 373.75 677.597 383.893C669.823 392.227 659.632 394.593 648.649 395.039C646.733 411.179 644.738 427.362 639.494 442.827C627.275 478.866 597.819 505.716 564.498 522.227L564.517 540.239Q598.266 540.645 632.017 540.52C644.699 540.489 657.495 539.363 670.13 540.881Q673.212 541.239 676.261 541.819Q679.309 542.399 682.308 543.198Q685.306 543.998 688.239 545.012Q691.172 546.026 694.024 547.249Q695.465 547.862 696.883 548.527Q698.3 549.191 699.693 549.906Q701.087 550.62 702.453 551.384Q703.82 552.148 705.158 552.96Q706.497 553.773 707.806 554.633Q709.114 555.492 710.391 556.398Q711.668 557.304 712.912 558.255Q714.156 559.206 715.365 560.201Q716.574 561.196 717.747 562.233Q718.919 563.271 720.054 564.349Q721.189 565.428 722.284 566.547Q723.38 567.665 724.435 568.822Q725.49 569.98 726.502 571.174Q727.515 572.368 728.485 573.597Q729.454 574.827 730.379 576.09Q731.304 577.353 732.183 578.649C742.123 593.297 746.836 611.088 752.905 627.557Q762.896 654.461 772.514 681.5C777.666 695.992 782.547 710.561 788.237 724.856C793.309 727.042 797.561 730.115 800.717 734.716C807.276 744.281 806.127 756.085 804.197 766.88Q805.182 767.891 806.117 768.947Q807.053 770.004 807.937 771.104Q808.821 772.203 809.652 773.344Q810.483 774.485 811.258 775.664Q812.034 776.843 812.752 778.058Q813.471 779.272 814.13 780.52Q814.79 781.768 815.389 783.045Q815.989 784.323 816.527 785.627Q817.065 786.932 817.54 788.261Q818.015 789.59 818.426 790.94Q818.838 792.29 819.184 793.658Q819.531 795.026 819.811 796.409Q820.092 797.792 820.307 799.186Q820.522 800.581 820.67 801.985Q820.817 803.388 820.898 804.797Q820.979 806.206 820.993 807.617C821.023 822.823 815.36 836.557 804.568 847.287C797.363 854.45 788.342 859.744 778.395 861.922C767.065 864.403 754.894 863.984 743.35 863.989L710.088 863.997L589.75 863.982L356.105 863.722L290.677 863.741C276.64 863.839 262.275 864.889 248.3 863.251C241.026 862.399 233.56 859.203 227.439 855.259C214.568 846.966 205.591 834.366 202.46 819.342C198.774 801.651 203.813 787.162 213.429 772.458C213.558 762.611 213.793 751.047 216.99 741.691C218.076 738.515 219.8 734.694 222.028 732.172C224.491 729.383 228 727.433 229.562 723.948C233.532 715.089 236.737 705.767 240.475 696.787C249.325 675.525 258.379 654.377 266.97 633.005C272.933 618.168 278.216 602.323 285.789 588.249Q287.248 585.477 288.908 582.82Q290.568 580.163 292.42 577.636Q294.272 575.109 296.306 572.726Q298.34 570.344 300.545 568.118C310.342 558.257 321.919 550.637 335.188 546.365C356.359 539.548 379.756 541 401.742 540.997L450.805 541.013Q450.602 530.996 450.677 520.977C438.755 516.066 427.674 508.013 418.037 499.498C386.314 471.47 372.982 434.961 370.528 393.72C360.035 393.023 350.722 391.914 342.425 384.791C334.592 378.066 330.865 368.831 330.126 358.683C329.738 353.345 329.889 347.913 329.899 342.558C329.922 329.765 329.588 317.493 338.575 307.336C345.76 299.215 355.061 296.974 365.483 296.277L365.403 260.75C365.355 245.879 364.376 230.153 368.308 215.692C371.015 205.736 375.964 196.916 382.572 189.026C396.593 172.285 415.096 164.623 436.467 162.71Z"/>
	<path fill="#1C395D" transform="scale(2.85545 2.85545)" d="M303.397 590.375C305.162 587.692 306.93 584.964 308.937 582.454C315.315 574.476 325.781 564.346 336.472 563.196C331.831 567.326 316.265 580.082 315.682 586.316C315.63 586.873 315.702 587.214 315.89 587.71C312.435 589.318 307.176 589.687 303.397 590.375Z"/>
	<path fill="#1C395D" transform="scale(2.85545 2.85545)" d="M558.789 569.401C561.44 573.924 561.923 581.834 562.826 587.011L537.325 587.003C535.938 586.991 534.592 587.052 533.23 586.766C536.011 584.66 540.235 583.596 543.405 581.969C549.205 578.993 554.128 573.888 558.789 569.401Z"/>
	<path fill="#1C395D" transform="scale(2.85545 2.85545)" d="M461.552 568.02C466.958 570.488 471.396 576.691 476.535 580.064C480.844 582.892 486.393 583.906 490.359 586.872L489.877 587.326C480.127 586.854 470.236 587.322 460.477 587.528L461.552 568.02Z"/>
	<path fill="#4775A4" transform="scale(2.85545 2.85545)" d="M231.455 751.893C231.95 748.505 232.357 743.562 235.211 741.249C241.086 736.489 279.425 740.456 288.975 741.094C289.72 742.22 289.928 742.323 289.844 743.646C286.691 746.351 258.212 745.618 251.254 746.543C244.704 747.414 237.62 749.504 231.455 751.893Z"/>
	<path fill="#4775A4" transform="scale(2.85545 2.85545)" d="M736.408 739.578C748.225 739.28 777.624 734.539 786.379 743.307C787.653 744.583 788.609 746.063 789.49 747.623L789.517 756.986C786.668 756.226 783.654 755.598 780.884 754.603C769.37 741.803 740.426 744.11 736.408 739.578Z"/>
	<path fill="#1C395D" transform="scale(2.85545 2.85545)" d="M714.123 744.85C721.122 742.315 728.858 739.221 736.408 739.578C740.426 744.11 769.37 741.803 780.884 754.603C776.117 754.461 771.364 753.716 766.576 753.576C748.57 753.048 730.266 753.249 712.258 753.758Q713.311 749.329 714.123 744.85Z"/>
	<path fill="#FDCD87" transform="scale(2.85545 2.85545)" d="M658.115 313.064C663.53 315.674 667.97 319.51 669.915 325.375C673.219 335.338 673.566 359.239 668.655 368.654C667.899 370.103 666.787 371.293 665.683 372.482C662.576 368.087 655.569 353.768 654.51 348.592C654.26 347.372 654.271 347.195 654.905 346.195C655.852 345.815 656.881 345.495 657.643 344.794C658.487 344.018 658.069 316.888 658.115 313.064Z"/>
	<path fill="#F6F1EE" transform="scale(2.85545 2.85545)" d="M518.989 549.528C530.145 545.679 538.258 540.016 547.441 532.768C548.075 541.903 549.747 552.882 543.192 560.366C537.524 566.839 528.499 569.825 520.441 571.904C517.621 566.001 518.944 556.075 518.989 549.528Z"/>
	<path fill="#1C395D" transform="scale(2.85545 2.85545)" d="M288.975 741.094C294.607 741.016 300.207 741.531 305.83 741.503C306.186 746.049 306.991 750.517 307.754 755.007L276.528 754.964C260.945 754.953 245.707 754.048 230.935 759.913C231.116 757.271 231.447 754.536 231.455 751.893C237.62 749.504 244.704 747.414 251.254 746.543C258.212 745.618 286.691 746.351 289.844 743.646C289.928 742.323 289.72 742.22 288.975 741.094Z"/>
	<path fill="#FDCD87" transform="scale(2.85545 2.85545)" d="M470.029 548.101C470.876 547.808 471.494 547.67 472.4 547.779C481.098 548.827 488.377 551.345 497.755 551.807Q500.433 551.915 503.112 551.826Q505.791 551.737 508.456 551.451Q511.121 551.165 513.758 550.684Q516.395 550.202 518.989 549.528C518.944 556.075 517.621 566.001 520.441 571.904C513.34 573.071 506.514 573.107 499.475 571.419C485.846 568.152 477.147 559.758 470.029 548.101Z"/>
	<path fill="#D68644" transform="scale(2.85545 2.85545)" d="M468.875 529.64C484.481 533.448 499.911 535.975 516.056 535.143C524.74 534.695 533.005 533.458 541.226 530.605C543.025 529.981 544.9 529.188 546.795 529.79C547.647 530.95 547.461 531.363 547.441 532.768C538.258 540.016 530.145 545.679 518.989 549.528Q516.395 550.202 513.758 550.684Q511.121 551.165 508.456 551.451Q505.791 551.737 503.112 551.826Q500.433 551.915 497.755 551.807C488.377 551.345 481.098 548.827 472.4 547.779C471.494 547.67 470.876 547.808 470.029 548.101C467.243 543.043 468.531 535.238 468.875 529.64Z"/>
	<path fill="#F2AC5F" transform="scale(2.85545 2.85545)" d="M639.864 314.706C640.121 314.113 640.365 313.43 640.906 313.027C644.82 310.119 653.698 312.182 658.115 313.064C658.069 316.888 658.487 344.018 657.643 344.794C656.881 345.495 655.852 345.815 654.905 346.195C654.271 347.195 654.26 347.372 654.51 348.592C655.569 353.768 662.576 368.087 665.683 372.482C661.225 376.507 656.326 379.028 650.131 378.699C646.267 378.495 642.659 377.009 640.032 374.151C640.008 354.408 640.607 334.447 639.864 314.706Z"/>
	<path fill="#1C395D" transform="scale(2.85545 2.85545)" d="M728.629 649.58C732.31 657.474 734.858 665.877 737.642 674.118C743.189 690.54 748.344 707.555 754.843 723.607C758.895 723.564 763.056 723.318 767.097 723.561C755.699 725.233 743.906 723.848 732.415 724.582C729.179 715.678 725.352 706.741 721.343 698.155C723.129 688.014 724.228 677.696 725.708 667.504C726.578 661.511 727.965 655.6 728.629 649.58Z"/>
	<path fill="#F6F1EE" transform="scale(2.85545 2.85545)" d="M224.53 785.872C231.462 777.138 239.965 772.352 251.06 771.016C259.547 769.994 268.327 770.669 276.865 770.717C288.048 770.781 299.285 770.473 310.46 770.772Q311.472 778.722 312.76 786.633C309.27 787.798 238.961 787.286 230.732 786.909C228.585 786.811 226.58 786.542 224.53 785.872Z"/>
	<path fill="#4775A4" transform="scale(2.85545 2.85545)" d="M733.282 622.953C737.663 632.484 769.428 718.093 769.489 722.548L768.983 723.396L767.097 723.561C763.056 723.318 758.895 723.564 754.843 723.607C748.344 707.555 743.189 690.54 737.642 674.118C734.858 665.877 732.31 657.474 728.629 649.58C730.859 640.861 731.614 631.785 733.282 622.953Z"/>
	<path fill="#4775A4" transform="scale(2.85545 2.85545)" d="M247.936 723.479C251.6 710.575 257.696 697.646 262.69 685.147C270.604 665.339 278.189 645.204 287.089 625.818C289.182 633.994 290.269 642.723 291.8 651.049C289.7 661.021 283.894 671.373 280.033 680.863C274.27 695.027 269.184 710.021 262.511 723.758C257.762 723.165 252.725 723.479 247.936 723.479Z"/>
	<path fill="#1C395D" transform="scale(2.85545 2.85545)" d="M291.8 651.049C294.445 675.608 299.227 699.978 302.21 724.503C294.999 724.512 267.002 725.575 262.511 723.758C269.184 710.021 274.27 695.027 280.033 680.863C283.894 671.373 289.7 661.021 291.8 651.049Z"/>
	<path fill="#F6F1EE" transform="scale(2.85545 2.85545)" d="M709.709 769.734L747.21 769.681C755.927 769.673 765.101 769.124 773.717 770.601C785.57 772.633 792.76 778.601 799.545 788.183C790.478 790.265 776.821 789.076 767.245 789.058L706.643 789.037Q708.238 779.395 709.709 769.734Z"/>
	<path fill="#D68644" transform="scale(2.85545 2.85545)" d="M373.37 377.039C369.55 375.824 363.385 377.495 357.169 374.735C352.416 372.625 349.478 369.214 347.653 364.393C344.283 355.489 344.464 331.16 348.547 322.457C350.421 318.462 353.587 315.398 357.816 314.025C363.554 312.162 369.252 313.503 374.39 316.251C377.427 322.688 377.043 367.309 375.735 375.492C374.967 376.216 374.331 376.604 373.37 377.039Z"/>
	<path fill="#4775A4" transform="scale(2.85545 2.85545)" d="M336.472 563.196C342.068 561.014 347.684 558.873 353.633 557.86C367.363 555.521 382.112 556.42 396.021 556.554L449.972 556.745L448.471 569.488L398.425 569.446C384.371 569.387 369.045 567.435 355.35 571.205C347.176 573.454 339.118 578.54 333.139 584.484Q331.644 585.964 330.217 587.509C325.431 587.478 320.672 587.463 315.89 587.71C315.702 587.214 315.63 586.873 315.682 586.316C316.265 580.082 331.831 567.326 336.472 563.196Z"/>
	<path fill="#4775A4" transform="scale(2.85545 2.85545)" d="M573.715 556.837C592.734 556.593 611.735 557.048 630.748 557.018C645.521 556.994 661.757 554.648 676.174 558.166Q678.565 558.767 680.91 559.526Q683.255 560.286 685.544 561.202Q687.833 562.117 690.055 563.184Q692.277 564.251 694.423 565.465Q696.568 566.679 698.628 568.034Q700.687 569.389 702.651 570.879Q704.614 572.37 706.473 573.988Q708.333 575.607 710.079 577.347C715.539 582.71 720.377 589.268 723.658 596.19C717.17 591.22 711.503 588.384 703.43 586.734C695.322 579.592 686.58 574.236 676.073 571.369C662.977 567.796 648.227 568.962 634.734 568.976L575.982 569.496C575.225 565.283 574.366 561.065 573.715 556.837Z"/>
	<path fill="#D68644" transform="scale(2.85545 2.85545)" d="M698.119 846.192C699.086 839.186 699.835 832.047 701.244 825.119C701.6 825.353 701.914 825.667 702.31 825.82C704.482 826.66 790.386 825.915 800.022 826.054C797.707 829.611 795.238 832.947 792.217 835.945C787.966 840.163 783.078 843.085 777.29 844.646C764.623 848.063 750.33 846.385 737.302 846.294L698.119 846.192Z"/>
	<path fill="#1C395D" transform="scale(2.85545 2.85545)" d="M330.217 587.509Q331.644 585.964 333.139 584.484C339.118 578.54 347.176 573.454 355.35 571.205C369.045 567.435 384.371 569.387 398.425 569.446L448.471 569.488C448.218 575.488 447.593 581.558 446.883 587.521L330.217 587.509Z"/>
	<path fill="#1C395D" transform="scale(2.85545 2.85545)" d="M575.982 569.496L634.734 568.976C648.227 568.962 662.977 567.796 676.073 571.369C686.58 574.236 695.322 579.592 703.43 586.734C692.928 587.639 680.511 586.485 669.757 586.471C639.668 586.432 609.464 585.904 579.397 587.053C578.52 581.185 577.145 575.317 575.982 569.496Z"/>
	<path fill="#D68644" transform="scale(2.85545 2.85545)" d="M317.325 818.024C318.49 827.636 320.141 837.21 321.628 846.777C309.796 846.74 297.955 846.643 286.123 846.771C273.227 846.91 259.247 848.471 246.648 845.303C239.86 843.597 233.921 840.34 228.968 835.379C224.829 831.232 221.962 826.456 219.741 821.06C230.648 821.039 241.598 821.211 252.499 820.951C257.924 820.821 263.323 820.174 268.751 820.096C274.782 820.01 314.347 820.668 316.763 819.588L317.325 818.024Z"/>
	<path fill="#F2AC5F" transform="scale(2.85545 2.85545)" d="M219.741 821.06Q219.572 820.468 219.421 819.871C216.283 807.419 217.941 796.776 224.53 785.872C226.58 786.542 228.585 786.811 230.732 786.909C238.961 787.286 309.27 787.798 312.76 786.633C314.175 797.073 315.309 807.685 317.325 818.024L316.763 819.588C314.347 820.668 274.782 820.01 268.751 820.096C263.323 820.174 257.924 820.821 252.499 820.951C241.598 821.211 230.648 821.039 219.741 821.06Z"/>
	<path fill="#F2AC5F" transform="scale(2.85545 2.85545)" d="M799.545 788.183C804.508 798.047 806.02 809.404 802.465 819.977C801.772 822.038 800.858 824.047 800.022 826.054C790.386 825.915 704.482 826.66 702.31 825.82C701.914 825.667 701.6 825.353 701.244 825.119C702.551 813.048 705.124 801.092 706.643 789.037L767.245 789.058C776.821 789.076 790.478 790.265 799.545 788.183Z"/>
	<path fill="#F6F1EE" transform="scale(2.85545 2.85545)" d="M302.685 616.557C303.008 615.304 303.377 614.087 303.918 612.908C305.882 608.637 309.381 605.102 313.853 603.525C323.472 600.133 386.14 601.724 400.476 601.725L541.872 601.726L642.604 601.72C659.662 601.715 676.821 601.268 693.869 601.717C698.271 601.833 703.919 601.9 707.924 603.867C712.989 606.355 715.641 610.952 717.454 616.042C714.022 617.207 706.178 617.531 702.808 616.218C691.316 615.378 679.426 615.969 667.886 615.966L602.647 615.961L373.099 616.874C362.061 616.884 350.976 617.225 339.944 616.972C334.295 616.842 328.689 615.895 323.034 615.886C318.29 615.879 306.141 617.59 302.685 616.557Z"/>
	<path fill="#6E533F" transform="scale(2.85545 2.85545)" d="M386.379 393.925C395.673 405 404.091 418.002 414.993 427.578C422.693 434.659 431.208 443.801 440.942 447.919C440.518 448.796 440.196 449.758 440.175 450.741C439.966 460.825 445.205 470.934 451.707 478.306C464.589 492.911 482.846 497.651 501.554 498.654C512.251 499.228 527.74 497.484 537.994 494.346C569.468 484.714 599.687 459.336 617.3 431.885C619.707 428.134 630.949 405.724 632.028 404.882C632.253 404.707 632.495 404.553 632.728 404.388C629.166 429.498 619.046 455.081 601.934 473.98C579.186 499.105 546.55 515.626 512.556 517.288C482.276 518.769 451.95 507.039 429.587 486.797Q428.379 485.685 427.198 484.544Q426.017 483.403 424.864 482.233Q423.712 481.063 422.588 479.866Q421.464 478.668 420.37 477.443Q419.276 476.219 418.212 474.967Q417.149 473.716 416.116 472.44Q415.083 471.163 414.082 469.861Q413.081 468.559 412.112 467.234Q411.142 465.908 410.206 464.559Q409.27 463.21 408.367 461.838Q407.464 460.466 406.594 459.073Q405.725 457.68 404.89 456.266Q404.055 454.852 403.255 453.418Q402.455 451.983 401.69 450.53Q400.926 449.077 400.197 447.605Q399.468 446.134 398.775 444.645Q398.082 443.156 397.426 441.65Q396.77 440.145 396.151 438.624Q395.532 437.103 394.95 435.567Q394.369 434.031 393.825 432.482Q393.281 430.932 392.775 429.37Q392.269 427.808 391.802 426.233Q391.334 424.659 390.906 423.074Q390.477 421.489 390.087 419.893Q389.697 418.298 389.346 416.694Q388.996 415.09 388.684 413.477Q388.373 411.865 388.101 410.245Q387.829 408.626 387.597 407Q387.365 405.374 387.173 403.743Q386.98 402.113 386.828 400.477Q386.676 398.842 386.563 397.204Q386.451 395.566 386.379 393.925Z"/>
	<path fill="#6E533F" transform="scale(2.85545 2.85545)" d="M412.269 185.901C418.372 182.773 424.638 180.247 431.504 179.498C441.847 178.371 452.194 178.868 462.569 178.96L498.915 179.007L551.09 178.964C562.026 178.899 572.935 178.402 583.87 178.906C587.33 179.065 590.382 179.486 593.682 180.559C608.947 185.525 622.929 195.843 630.214 210.429C632.987 215.982 635.056 222.456 635.697 228.64C629.137 222.225 623.28 214.967 616.7 208.479C609.248 210.351 601.886 212.442 594.35 213.976C549.004 223.205 488.17 228.041 443.989 212.01C430.599 207.152 418.464 199.09 412.269 185.901Z"/>
	<defs>
		<linearGradient id="gradient_0" gradientUnits="userSpaceOnUse" x1="506.94284" y1="169.82039" x2="564.41736" y2="489.12491">
			<stop offset="0" stop-color="#55371F"/>
			<stop offset="1" stop-color="#58433D"/>
		</linearGradient>
	</defs>
	<path fill="url(#gradient_0)" transform="scale(2.85545 2.85545)" d="M397.363 196.411C401.547 192.356 407.131 188.643 412.269 185.901C418.464 199.09 430.599 207.152 443.989 212.01C488.17 228.041 549.004 223.205 594.35 213.976C601.886 212.442 609.248 210.351 616.7 208.479C623.28 214.967 629.137 222.225 635.697 228.64C637.6 236.458 636.208 246.175 636.088 254.24C635.982 261.373 635 312.218 637.643 315.79C639.003 315.721 638.888 315.545 639.864 314.706C640.607 334.447 640.008 354.408 640.032 374.151C635.322 378.831 635.737 397.55 632.728 404.388C632.495 404.553 632.253 404.707 632.028 404.882C630.949 405.724 619.707 428.134 617.3 431.885C599.687 459.336 569.468 484.714 537.994 494.346C527.74 497.484 512.251 499.228 501.554 498.654C482.846 497.651 464.589 492.911 451.707 478.306C445.205 470.934 439.966 460.825 440.175 450.741C440.196 449.758 440.518 448.796 440.942 447.919Q442.167 444.085 443.598 440.323C447.686 429.769 455.466 421.684 465.887 417.188Q469.174 415.806 472.618 414.878Q476.062 413.951 479.599 413.495C488.926 412.224 498.547 412.506 507.942 412.402C516.99 412.302 526.26 411.744 535.252 412.917Q538.654 413.344 541.97 414.214Q545.286 415.084 548.459 416.382C562.972 422.367 569.339 433.624 575.1 447.454C590.956 434.379 604.274 420.929 615.622 403.686C619.967 397.085 624.558 389.67 626.106 381.807C628.351 370.4 626.979 345.501 626.97 332.705L627.064 299.395C627.095 289.699 627.676 279.671 625.711 270.132C627.997 271.217 629.895 272.441 631.927 273.927L631.928 242.99C627.86 242.883 623.781 242.987 619.711 243.034C614.933 239.134 611.371 234.216 607.246 229.685C594.575 236.276 580.525 241.185 566.788 245.003C526.825 256.111 465.519 259.709 428.672 238.838C417.951 232.765 406.019 223.601 401.471 211.73C399.581 206.796 398.761 201.495 397.363 196.411Z"/>
	<path fill="#F2AC5F" transform="scale(2.85545 2.85545)" d="M464.272 460.425C464.212 460.091 464.132 459.707 464.1 459.363C463.582 453.875 464.797 447.622 468.545 443.453C473.63 437.795 481.922 436.015 489.216 435.579C500.873 434.883 524.413 433.489 535.555 436.295C539.641 437.323 542.902 438.918 546.068 441.706C540.21 442.035 536.006 442.821 530.766 445.557C529.979 444.831 529.119 444.126 528.217 443.545C525.252 441.637 521.976 442.65 518.837 443.427L517.795 443.938C510.693 444.037 503.355 443.732 496.287 444.271L494.314 443.33C491.653 442.195 489.639 441.465 486.84 442.644C484.988 443.424 483.052 445.438 481.937 447.085C477.957 446.98 474.249 449.362 471.421 451.978C468.725 454.472 466.49 457.515 464.272 460.425Z"/>
	<path fill="#FDCD87" transform="scale(2.85545 2.85545)" d="M494.314 443.33C498.373 440.003 509.654 441.483 514.69 441.98C516.403 442.149 517.427 442.335 518.837 443.427L517.795 443.938C510.693 444.037 503.355 443.732 496.287 444.271L494.314 443.33Z"/>
	<path fill="#FDCD87" transform="scale(2.85545 2.85545)" d="M546.068 441.706C551.36 444.901 554.511 452.552 556.706 458.082C549.279 466.721 540.324 476.526 528.157 477.464C526.59 477.585 525.002 477.545 523.433 477.512C519.605 473.283 515.939 468.499 509.788 468.052C496.908 467.114 492.4 482.499 477.034 476.277C474.123 475.098 471.215 473.466 469.094 471.125C466.424 468.177 464.845 464.327 464.272 460.425C466.49 457.515 468.725 454.472 471.421 451.978C474.249 449.362 477.957 446.98 481.937 447.085C483.052 445.438 484.988 443.424 486.84 442.644C489.639 441.465 491.653 442.195 494.314 443.33L496.287 444.271C503.355 443.732 510.693 444.037 517.795 443.938L518.837 443.427C521.976 442.65 525.252 441.637 528.217 443.545C529.119 444.126 529.979 444.831 530.766 445.557C536.006 442.821 540.21 442.035 546.068 441.706Z"/>
	<path fill="#191919" transform="scale(2.85545 2.85545)" d="M481.937 447.085C483.052 445.438 484.988 443.424 486.84 442.644C489.639 441.465 491.653 442.195 494.314 443.33L496.287 444.271C503.355 443.732 510.693 444.037 517.795 443.938L518.837 443.427C521.976 442.65 525.252 441.637 528.217 443.545C529.119 444.126 529.979 444.831 530.766 445.557C532.194 448.196 533.223 450.182 532.396 453.211C531.323 457.14 528.062 459.653 524.616 461.478C516.358 465.851 506.207 466.611 497.342 463.795C491.721 462.009 486.212 458.768 483.415 453.379C482.349 451.327 482.059 449.366 481.937 447.085Z"/>
	<path fill="#6E533F" transform="scale(2.85545 2.85545)" d="M496.287 444.271C503.355 443.732 510.693 444.037 517.795 443.938C514.264 446.922 510.09 448.372 505.44 447.968C502.095 447.678 498.788 446.554 496.287 444.271Z"/>
	<path fill="#959494" transform="scale(2.85545 2.85545)" d="M717.454 616.042C717.599 625.818 715.248 635.604 713.677 645.226L707.031 686.89L681.816 845.51L338.254 846.019C336.594 836.394 334.935 826.726 333.558 817.056L482.27 817.002C493.939 805.325 506.492 794.604 518.72 783.53L568.418 737.863L656.604 656.911C668.16 646.314 679.373 635.212 691.118 624.843C693.907 622.381 699.276 616.671 702.808 616.218C706.178 617.531 714.022 617.207 717.454 616.042Z"/>
	<path fill="#FDCD87" transform="scale(2.85545 2.85545)" d="M374.39 316.251C383.615 302.064 377.697 248.828 380.882 228.658C382.7 217.146 387.598 203.569 397.363 196.411C398.761 201.495 399.581 206.796 401.471 211.73C406.019 223.601 417.951 232.765 428.672 238.838C465.519 259.709 526.825 256.111 566.788 245.003C580.525 241.185 594.575 236.276 607.246 229.685C611.371 234.216 614.933 239.134 619.711 243.034C623.781 242.987 627.86 242.883 631.928 242.99L631.927 273.927C629.895 272.441 627.997 271.217 625.711 270.132C627.676 279.671 627.095 289.699 627.064 299.395L626.97 332.705C626.979 345.501 628.351 370.4 626.106 381.807C624.558 389.67 619.967 397.085 615.622 403.686C604.274 420.929 590.956 434.379 575.1 447.454C569.339 433.624 562.972 422.367 548.459 416.382Q545.286 415.084 541.97 414.214Q538.654 413.344 535.252 412.917C526.26 411.744 516.99 412.302 507.942 412.402C498.547 412.506 488.926 412.224 479.599 413.495Q476.062 413.951 472.618 414.878Q469.174 415.806 465.887 417.188C455.466 421.684 447.686 429.769 443.598 440.323Q442.167 444.085 440.942 447.919C431.208 443.801 422.693 434.659 414.993 427.578C404.091 418.002 395.673 405 386.379 393.925L385.648 392.147C378.553 389.43 379.82 380.053 373.37 377.039C374.331 376.604 374.967 376.216 375.735 375.492C377.043 367.309 377.427 322.688 374.39 316.251Z"/>
	<path fill="#191919" transform="scale(2.85545 2.85545)" d="M564.056 340.021C565.832 339.945 567.712 339.975 569.422 340.518C572.629 341.538 575.124 344.338 576.441 347.351C578.434 351.91 578.54 357.936 576.518 362.503C574.765 366.465 572.342 368.35 568.418 369.945C566.18 370.078 563.908 369.628 561.693 369.33C559.315 367.484 557.398 365.649 556.046 362.915C553.934 358.645 553.541 353.391 555.17 348.891C556.827 344.311 559.747 341.973 564.056 340.021Z"/>
	<path fill="#191919" transform="scale(2.85545 2.85545)" d="M446.728 339.51C448.593 339.438 450.453 339.399 452.244 340.016C455.658 341.193 458.366 343.729 459.911 346.976C461.916 351.193 462.204 356.647 460.596 361.037C458.93 365.583 456.256 367.691 452.017 369.698C450.426 369.817 448.589 369.823 447.037 369.442C444.03 368.703 441.435 366.51 439.909 363.858C437.438 359.563 437.049 353.664 438.516 348.973C439.991 344.26 442.452 341.781 446.728 339.51Z"/>
	<path fill="#F2AC5F" transform="scale(2.85545 2.85545)" d="M420.74 321.929C440.061 322.064 459.509 322.387 478.82 321.938C478.583 323.083 478.619 322.626 478.603 323.741C478.574 325.675 478.833 328.261 477.639 329.905C476.73 331.157 475.916 331.628 474.417 331.9C468.626 332.951 428.599 333.563 425.212 330.969C422.597 328.966 421.322 325.021 420.74 321.929Z"/>
	<path fill="#F2AC5F" transform="scale(2.85545 2.85545)" d="M540.438 322.14C548.213 321.227 556.352 321.956 564.183 321.96C575.127 321.965 586.073 321.402 597.018 321.809C597.314 324.278 598.005 327.327 596.382 329.485C595.599 330.525 594.432 331.396 593.438 332.232L562.046 332.122C557.311 332.102 552.381 332.499 547.673 332.05C545.496 331.842 541.75 331.414 540.033 329.889C539.164 329.117 538.734 328.272 538.757 327.079C538.787 325.513 539.831 323.558 540.438 322.14Z"/>
	<path fill="#D68644" transform="scale(2.85545 2.85545)" d="M502.312 348.403C503.02 357.213 489.645 373.103 493.001 384.304C496.5 395.978 519.022 386.691 527.6 391.436C529.473 392.472 531.245 393.921 531.651 396.144C531.986 397.98 531.162 399.76 529.966 401.103C527.526 403.84 524.612 404.344 521.125 404.493C510.411 404.474 495.503 406.882 486.165 400.536C483.291 398.583 481.394 395.739 480.874 392.287C479.291 381.764 495.687 357.266 502.312 348.403Z"/>
	<path fill="#191919" transform="scale(2.85545 2.85545)" d="M533.158 319.211C531.657 316.44 529.895 313.507 530.993 310.267C531.634 308.376 533.322 306.497 535.144 305.682C537.357 304.692 540.242 304.267 542.648 304.087C550.178 303.522 558.018 304.013 565.582 303.983C574.146 303.95 582.785 303.384 591.337 303.866C594.257 304.031 597.521 304.246 600.244 305.356C602.326 306.205 604.363 307.622 605.143 309.825C605.786 311.64 605.437 313.549 604.647 315.253C603.039 318.722 600.466 320.438 597.018 321.809C586.073 321.402 575.127 321.965 564.183 321.96C556.352 321.956 548.213 321.227 540.438 322.14C537.635 321.622 535.593 320.625 533.158 319.211Z"/>
	<path fill="#191919" transform="scale(2.85545 2.85545)" d="M415.217 305.884C416.758 305.069 418.199 304.616 419.93 304.379C429.238 303.109 473.907 302.681 481.162 304.657C483.29 305.237 485.012 306.963 485.979 308.896C487.142 311.223 487.405 314.175 486.454 316.62C485.636 318.722 483.733 320.362 481.661 321.18C480.759 321.536 479.768 321.745 478.82 321.938C459.509 322.387 440.061 322.064 420.74 321.929C418.904 321.655 417.242 321.317 415.477 320.736C414.357 318.966 413.384 317.169 412.837 315.132C411.928 311.749 413.68 308.767 415.217 305.884Z"/>
	<path fill="#2A1D18" transform="scale(2.85545 2.85545)" d="M374.39 316.251C383.615 302.064 377.697 248.828 380.882 228.658C382.7 217.146 387.598 203.569 397.363 196.411C398.761 201.495 399.581 206.796 401.471 211.73C406.019 223.601 417.951 232.765 428.672 238.838C465.519 259.709 526.825 256.111 566.788 245.003C580.525 241.185 594.575 236.276 607.246 229.685C611.371 234.216 614.933 239.134 619.711 243.034C623.781 242.987 627.86 242.883 631.928 242.99L631.927 273.927C629.895 272.441 627.997 271.217 625.711 270.132C621.077 267.96 607.254 254.303 601.938 250.131C592.33 253.742 582.799 257.752 572.986 260.775C565.327 263.135 557.415 264.725 549.663 266.759C548.617 268.036 547.738 268.74 546.218 269.414C541.086 271.687 535.107 272.447 529.627 273.566C514.778 276.598 500.207 279.193 485.107 280.701Q450.099 283.964 414.939 284.034C414.767 291.091 414.111 298.893 415.217 305.884C413.68 308.767 411.928 311.749 412.837 315.132C413.384 317.169 414.357 318.966 415.477 320.736C414.333 322.37 414.407 324.218 414.317 326.181C413.769 338.144 414.573 350.401 414.719 362.395Q415.065 394.986 414.993 427.578C404.091 418.002 395.673 405 386.379 393.925L385.648 392.147C378.553 389.43 379.82 380.053 373.37 377.039C374.331 376.604 374.967 376.216 375.735 375.492C377.043 367.309 377.427 322.688 374.39 316.251Z"/>
	<path fill="#F2AC5F" transform="scale(2.85545 2.85545)" d="M386.336 269.621C389.021 266.445 391.858 264.811 396.094 264.747C404.172 264.625 412.324 266.158 420.348 266.984C432.139 268.196 443.991 269.098 455.807 270.047C487.426 272.588 518.263 270.772 549.663 266.759C548.617 268.036 547.738 268.74 546.218 269.414C541.086 271.687 535.107 272.447 529.627 273.566C514.778 276.598 500.207 279.193 485.107 280.701Q450.099 283.964 414.939 284.034C414.767 291.091 414.111 298.893 415.217 305.884C413.68 308.767 411.928 311.749 412.837 315.132C413.384 317.169 414.357 318.966 415.477 320.736C414.333 322.37 414.407 324.218 414.317 326.181C413.769 338.144 414.573 350.401 414.719 362.395Q415.065 394.986 414.993 427.578C404.091 418.002 395.673 405 386.379 393.925L385.648 392.147C384.753 386.914 385.113 381.033 385.044 375.706C384.851 360.819 385.358 345.931 385.445 331.045L385.441 294.07C385.437 286.048 384.836 277.509 386.336 269.621Z"/>
	<path fill="#CCCCCB" transform="scale(2.85545 2.85545)" d="M333.558 817.056C331.438 805.987 329.965 794.707 328.194 783.573L317.926 719.078L308.518 660.746C306.797 650.303 304.708 639.874 303.309 629.386C302.801 625.581 301.658 620.261 302.685 616.557C306.141 617.59 318.29 615.879 323.034 615.886C328.689 615.895 334.295 616.842 339.944 616.972C350.976 617.225 362.061 616.884 373.099 616.874L602.647 615.961L667.886 615.966C679.426 615.969 691.316 615.378 702.808 616.218C699.276 616.671 693.907 622.381 691.118 624.843C679.373 635.212 668.16 646.314 656.604 656.911L568.418 737.863L518.72 783.53C506.492 794.604 493.939 805.325 482.27 817.002L333.558 817.056Z"/>
	<path fill="#F6F1EE" transform="scale(2.85545 2.85545)" d="M369.868 632.678C374.375 632.788 378.779 633.877 382.547 636.434Q382.961 636.716 383.361 637.018Q383.761 637.319 384.145 637.64Q384.53 637.961 384.898 638.301Q385.266 638.641 385.617 638.998Q385.969 639.355 386.302 639.729Q386.635 640.103 386.95 640.493Q387.264 640.883 387.559 641.288Q387.854 641.692 388.129 642.111Q388.403 642.53 388.657 642.962Q388.911 643.394 389.143 643.838Q389.376 644.281 389.586 644.736Q389.796 645.191 389.984 645.655Q390.172 646.12 390.336 646.593Q390.501 647.066 390.642 647.546Q390.784 648.027 390.901 648.514Q391.019 649.001 391.112 649.493C392.111 654.791 390.737 660.411 387.636 664.796C384.16 669.712 378.672 672.657 372.802 673.614C367.866 673.464 363.311 672.631 359.174 669.768Q358.735 669.462 358.312 669.133Q357.89 668.805 357.484 668.456Q357.078 668.107 356.691 667.738Q356.303 667.369 355.935 666.981Q355.566 666.592 355.218 666.186Q354.869 665.78 354.542 665.357Q354.214 664.933 353.909 664.494Q353.603 664.055 353.32 663.6Q353.037 663.146 352.777 662.678Q352.517 662.211 352.281 661.73Q352.045 661.25 351.834 660.758Q351.622 660.266 351.436 659.765Q351.249 659.263 351.089 658.752Q350.928 658.242 350.793 657.724Q350.658 657.206 350.55 656.682Q350.441 656.158 350.359 655.629Q350.289 655.137 350.243 654.643Q350.198 654.148 350.178 653.652Q350.158 653.155 350.163 652.659Q350.168 652.162 350.198 651.666Q350.228 651.17 350.283 650.677Q350.338 650.183 350.419 649.693Q350.499 649.203 350.604 648.717Q350.709 648.231 350.838 647.752Q350.968 647.272 351.121 646.8Q351.275 646.327 351.452 645.863Q351.629 645.399 351.83 644.945Q352.03 644.49 352.254 644.047Q352.477 643.603 352.723 643.171Q352.968 642.74 353.236 642.321Q353.503 641.902 353.791 641.497Q354.079 641.093 354.387 640.703C358.364 635.622 363.693 633.56 369.868 632.678Z"/>
	<path fill="#191919" transform="scale(2.85545 2.85545)" d="M507.954 693.194Q509.273 693.051 510.6 693.024Q511.927 692.998 513.251 693.089Q514.575 693.18 515.886 693.387Q517.196 693.595 518.484 693.917Q519.771 694.24 521.025 694.674Q522.279 695.109 523.489 695.653Q524.7 696.197 525.857 696.845Q527.015 697.494 528.111 698.242Q528.758 698.696 529.381 699.181Q530.005 699.666 530.603 700.182Q531.202 700.697 531.774 701.242Q532.347 701.786 532.891 702.358Q533.436 702.931 533.951 703.529Q534.467 704.128 534.952 704.751Q535.437 705.375 535.891 706.021Q536.345 706.668 536.766 707.336Q537.187 708.005 537.574 708.693Q537.962 709.382 538.314 710.089Q538.667 710.796 538.984 711.519Q539.302 712.243 539.583 712.981Q539.864 713.719 540.108 714.471Q540.352 715.222 540.558 715.984Q540.764 716.747 540.933 717.519Q541.101 718.291 541.231 719.07Q541.36 719.8 541.453 720.535Q541.545 721.271 541.602 722.01Q541.658 722.749 541.678 723.49Q541.698 724.231 541.682 724.972Q541.666 725.713 541.613 726.452Q541.56 727.191 541.471 727.927Q541.382 728.663 541.257 729.393Q541.132 730.124 540.971 730.847Q540.811 731.571 540.615 732.286Q540.418 733 540.187 733.705Q539.956 734.409 539.691 735.101Q539.425 735.793 539.126 736.471Q538.827 737.149 538.495 737.812Q538.163 738.474 537.799 739.12Q537.435 739.766 537.039 740.392Q536.644 741.019 536.218 741.626C531.088 748.878 523.594 753.095 514.918 754.597C506.844 754.938 499.657 753.599 493.035 748.737Q492.406 748.277 491.8 747.786Q491.194 747.295 490.613 746.775Q490.031 746.255 489.477 745.708Q488.922 745.16 488.395 744.585Q487.867 744.011 487.369 743.411Q486.871 742.811 486.403 742.187Q485.935 741.564 485.498 740.918Q485.061 740.272 484.656 739.606Q484.251 738.939 483.88 738.253Q483.509 737.568 483.172 736.865Q482.834 736.162 482.532 735.443Q482.23 734.724 481.964 733.991Q481.697 733.258 481.467 732.513Q481.237 731.768 481.044 731.012Q480.851 730.257 480.696 729.493Q480.54 728.729 480.422 727.958Q480.309 727.212 480.232 726.461Q480.156 725.709 480.117 724.955Q480.078 724.201 480.076 723.446Q480.074 722.691 480.11 721.937Q480.146 721.183 480.218 720.432Q480.291 719.68 480.401 718.933Q480.511 718.186 480.658 717.446Q480.805 716.705 480.988 715.973Q481.171 715.241 481.39 714.518Q481.61 713.796 481.864 713.085Q482.119 712.374 482.409 711.677Q482.698 710.98 483.022 710.298Q483.346 709.615 483.703 708.95Q484.06 708.285 484.449 707.638Q484.839 706.991 485.26 706.365Q485.681 705.738 486.132 705.133C491.469 698.03 499.326 694.387 507.954 693.194Z"/>
</svg>
