<?xml version="1.0" encoding="utf-8" ?>
<svg xmlns="http://www.w3.org/2000/svg" xmlns:xlink="http://www.w3.org/1999/xlink" width="1505" height="1505">
	<path fill="#FEFEFE" transform="scale(1.47032 1.47032)" d="M384.807 100.528C401.29 77.1509 416.533 67.7936 444.991 62.8897C499.223 53.5444 566.192 67.0136 615.553 90.0939C631.666 97.6278 644.835 105.914 659.607 115.642C685.259 137.406 707.131 162.818 710.075 197.993C711.41 213.931 708.911 228.737 701.506 242.89C696.487 232.721 692.01 222.02 686.341 212.217C688.912 240.027 678.206 270.697 671.521 297.556C681.475 304.539 687.638 312.692 689.771 324.852C692.152 338.426 689.521 353.187 681.475 364.504C674.134 374.829 665.025 380.3 652.62 382.331C651.593 382.499 650.577 382.614 649.541 382.703C647.925 432.337 646.365 465.135 607.522 501.601Q602.58 506.235 597.101 510.218C597.399 514.179 597.464 518.106 597.471 522.077C623.528 537.418 646.715 555.824 662.288 582.266C680.952 588.205 698.494 595.949 716.355 603.964C759.621 623.378 788.608 638.377 811.637 682.985C831.502 721.465 842.195 763.231 853.75 804.675C859.844 828.465 866.982 853.662 871.888 877.619C874.128 886.504 875.69 895.931 876.53 905.054C876.086 927.284 871.793 947.73 855.159 963.694Q851.906 966.795 848.425 969.637C837.821 977.719 832.418 979.733 819.024 980.114L637.207 980.259Q607.958 980.093 578.709 980.348C568.172 980.36 557.521 980.008 547 980.491C535.917 979.75 524.386 980.347 513.256 980.344C496.658 980.339 479.955 979.962 463.37 980.488C456.035 979.548 447.607 980.382 440.157 980.327L383.42 979.997Q280.629 980.64 177.837 980.032C170.824 979.988 139.964 981.23 135.523 979.526C134.392 979.093 133.598 978.349 133.22 977.159C132.885 976.103 133.223 975.066 134.014 974.322C138.189 970.393 173.012 971.937 180.388 972.605Q178.281 971.286 176.277 969.815C159.731 957.742 149.97 940.762 146.756 920.649C146.467 917.477 146.479 914.277 146.417 911.094C146.212 886.145 153.491 862.327 160.223 838.558L162.058 832.633Q164.099 825.077 166.367 817.586C166.692 815.424 167.643 813.101 168.273 810.99C173 794.882 177.442 778.677 182.283 762.605C190.118 736.594 214.503 667.793 231.151 649.24C235.556 644.331 241.061 640.21 246.297 636.22C267.827 619.814 291.32 607.153 315.654 595.429C323.313 591.739 331.069 588.045 338.991 584.948C347.536 581.607 357.235 578.918 365.102 574.239C372.136 570.056 376.484 560.546 381.69 554.341Q383.8 551.821 386.03 549.406Q388.26 546.991 390.603 544.687Q392.947 542.383 395.4 540.195Q397.852 538.006 400.407 535.939Q402.963 533.872 405.615 531.93Q408.267 529.989 411.01 528.178Q413.753 526.368 416.581 524.692Q419.408 523.016 422.313 521.478C421.999 517.621 422.091 513.823 422.398 509.97C418.309 504.882 412.858 500.37 408.325 495.608C392.306 478.778 380.248 459.765 375.07 436.861L373.955 430.487C373.729 423.874 373.194 417.251 372.778 410.645L372.976 407.264C372.936 399.099 373.453 390.851 373.624 382.679C367.257 382.062 361.449 380.825 355.793 377.71C342.203 370.228 335.176 357.498 330.909 343.094C329.917 338.035 329.435 332.928 330.032 327.789C331.713 313.332 338.599 307.247 349.377 298.616C337.842 263.522 316.898 195.657 333.884 160.488C341.986 143.711 359.105 135.108 375.783 129.19C377.389 118.974 380.784 109.978 384.807 100.528Z"/>
	<path fill="#EE8C5A" transform="scale(1.47032 1.47032)" d="M382.503 368.941C378.496 369.826 373.662 369.996 369.644 369.229C361.445 367.665 354.462 362.034 349.801 355.29C344.352 347.408 341.172 336.743 343.162 327.203C344.485 320.863 347.813 315.255 353.35 311.73C361.864 306.309 370.836 307.109 380.113 309.343C381.047 317.867 381.065 326.632 381.41 335.202C381.861 346.424 382.506 357.71 382.503 368.941Z"/>
	<path fill="#EE8C5A" transform="scale(1.47032 1.47032)" d="M640.433 311.012C648.992 308.521 658.112 305.903 666.558 310.404C671.845 313.222 675.234 318.249 676.793 323.946C679.488 333.802 677.35 344.785 672.323 353.537C668.189 360.735 662.418 366.19 654.226 368.385C648.959 369.796 643.37 369.555 637.969 369.507C637.992 366.967 638.176 364.418 638.302 361.881C638.489 349.234 638.468 336.4 639.891 323.821C639.939 319.535 640.138 315.288 640.433 311.012Z"/>
	<path fill="#DA5646" transform="scale(1.47032 1.47032)" d="M638.302 361.881C638.489 349.234 638.468 336.4 639.891 323.821C639.984 325.604 639.716 326.775 641.006 328.162C645.713 333.221 657.992 329.395 659.538 346.081C659.911 350.108 659.754 354.525 657.133 357.831C654.708 360.889 650.753 362.133 646.987 362.389C644.129 362.584 641.137 362.226 638.302 361.881Z"/>
	<path fill="#39C4DA" transform="scale(1.47032 1.47032)" d="M234.723 672.992C239.99 682.842 243.921 693.469 247.843 703.92C251.886 709.738 254.332 718.26 256.815 724.874C262.585 740.248 268.196 755.817 273.179 771.465C277.003 783.474 280.043 795.949 285.088 807.525C289.272 817.123 295.239 825.899 301.615 834.166C304.889 838.41 308.546 842.534 311.358 847.1C314.448 856.925 316.607 869.496 316.496 879.752C309.855 877.635 303.324 875.168 296.578 873.393L285.471 870.24C282.719 862.915 280.891 846.853 279.276 838.425C276.327 823.046 259.871 744.818 253.299 736.279C250.925 727.719 248.772 719.07 246.16 710.581C243.796 702.9 234.636 679.499 234.723 672.992Z"/>
	<path fill="#1F8DCF" transform="scale(1.47032 1.47032)" d="M234.723 672.992C239.99 682.842 243.921 693.469 247.843 703.92C247.619 706.036 248.23 707.816 248.838 709.822C251.172 717.518 254.119 725.022 256.515 732.702C268.456 770.982 280.361 809.427 290.559 848.207C292.141 854.224 296.582 867.88 296.578 873.393L285.471 870.24C282.719 862.915 280.891 846.853 279.276 838.425C276.327 823.046 259.871 744.818 253.299 736.279C250.925 727.719 248.772 719.07 246.16 710.581C243.796 702.9 234.636 679.499 234.723 672.992Z"/>
	<path fill="#39C4DA" transform="scale(1.47032 1.47032)" d="M160.659 902.948C167.228 917.397 171.808 924.889 187.406 930.796C209.127 939.022 238.645 936.073 261.661 935.998L324.317 935.987C326.53 940.95 325.114 947.127 326.974 951.49C328.132 958.599 329.45 964.546 335.651 969.026C337.736 970.532 340.072 971.798 342.312 973.054Q341.681 973.167 341.046 973.254C334.283 974.16 327.079 973.507 320.253 973.395Q305.868 973.211 291.482 973.26L241.208 973.295C230.92 973.37 219.615 974.577 209.477 972.795C201.217 971.344 193.668 967.05 187.099 961.978C171.412 949.866 163.263 933.854 160.775 914.391C161.008 910.593 160.775 906.749 160.659 902.948Z"/>
	<path fill="#141F62" transform="scale(1.47032 1.47032)" d="M341.231 951.525C347.658 952.193 354.251 951.853 360.712 951.891L394.337 952.023L481.321 952.011C494.505 952.005 507.757 951.656 520.932 951.916C529.964 952.455 539.207 952.082 548.26 952.08L598.622 952.075L665.311 952.053C674.105 952.046 683.032 952.529 691.806 952.246C693.564 952.19 695.254 952.066 696.937 951.543C698.418 952.307 698.722 952.435 699.597 953.831C699.975 957.927 697.149 961.776 694.614 964.772C691.948 967.922 688.855 970.356 685.477 972.701C680.839 974.172 674.7 973.888 669.811 973.957C647.922 974.263 625.939 973.704 604.037 973.7L444.128 973.709L376.213 973.716C366.124 973.714 351.804 974.807 342.312 973.054C340.072 971.798 337.736 970.532 335.651 969.026C329.45 964.546 328.132 958.599 326.974 951.49C331.709 951.487 336.504 951.319 341.231 951.525Z"/>
	<path fill="#39C4DA" transform="scale(1.47032 1.47032)" d="M861.782 894.48C864.563 916.094 861.785 936.544 848.136 954.163C840.441 964.096 830.009 971.663 817.331 973.215C810.411 974.062 803.326 973.635 796.366 973.563L771.108 973.5L718.001 973.279C708.894 973.276 699.728 973.736 690.631 973.51C688.8 973.465 687.23 973.282 685.477 972.701C688.855 970.356 691.948 967.922 694.614 964.772C697.149 961.776 699.975 957.927 699.597 953.831C698.722 952.435 698.418 952.307 696.937 951.543C696.056 947.663 698.384 940.153 699.133 936.104C706.723 935.804 714.94 933.712 722.544 932.615C758.195 927.471 792.533 920.433 826.625 908.596Q837.935 904.561 848.975 899.836C853.056 898.103 857.079 896.016 861.291 894.635C861.454 894.582 861.618 894.531 861.782 894.48Z"/>
	<path fill="#39C4DA" transform="scale(1.47032 1.47032)" d="M360.182 616.835C360.169 610.348 361.644 601.919 363.746 595.818C369.07 580.365 393.797 554.716 407.123 545.098C413.224 540.695 420.195 537.583 426.915 534.26C427.06 536.828 427.323 539.402 427.533 541.966C427.804 550.681 429.512 562.735 426.287 570.842C416.831 575.739 408.272 582.176 400.244 589.146C401.327 594.922 402.908 600.951 405.138 606.407C408.33 621.455 414.18 636.069 419.147 650.6C426.477 672.044 433.514 694.353 442.96 714.955C439.99 715.064 437.034 715.253 434.071 714.952C426.571 715.199 419.073 715.813 411.576 715.967C392.859 716.35 374.073 716.024 355.35 716.017C355.252 709.138 355.59 702.319 357.062 695.583C358.273 669.337 355.97 642.923 360.182 616.835Z"/>
	<path fill="#0F6FA1" transform="scale(1.47032 1.47032)" d="M400.244 589.146C398.812 581.262 397.319 573.116 400.057 565.326C404.329 553.173 416.766 547.178 427.533 541.966C427.804 550.681 429.512 562.735 426.287 570.842C416.831 575.739 408.272 582.176 400.244 589.146Z"/>
	<path fill="#0F6FA1" transform="scale(1.47032 1.47032)" d="M360.182 616.835L360.822 616.635C361.995 618.972 360.921 631.649 360.959 635.443C361.106 650.332 361.58 665.762 363.088 680.558L363.459 679.798C365.034 676.498 365.988 672.809 367.463 669.423C374.448 653.394 383.034 644.526 399.01 637.376C401.464 643.793 407.095 651.859 407.482 658.688Q393.881 667.553 380.991 677.423C376.56 680.834 361.537 695.147 358.01 695.941L357.062 695.583C358.273 669.337 355.97 642.923 360.182 616.835Z"/>
	<path fill="#ACE0F1" transform="scale(1.47032 1.47032)" d="M407.482 658.688C415.167 678.245 423.468 696.804 434.071 714.952C426.571 715.199 419.073 715.813 411.576 715.967C392.859 716.35 374.073 716.024 355.35 716.017C355.252 709.138 355.59 702.319 357.062 695.583L358.01 695.941C361.537 695.147 376.56 680.834 380.991 677.423Q393.881 667.553 407.482 658.688Z"/>
	<path fill="#EE8C5A" transform="scale(1.47032 1.47032)" d="M435.584 504.895C455.98 521.291 484.388 540.633 511.453 540.6C512.581 546.434 511.389 553.097 511.972 559.133L512.015 607.116C512.016 615.982 512.348 625.001 511.87 633.848L513.645 632.715C514.006 633.507 514.38 634.243 514.596 635.088C512.812 638.273 514.597 705.286 514.965 715L506.494 715.009C485.324 715.021 464.126 715.275 442.96 714.955C433.514 694.353 426.477 672.044 419.147 650.6C414.18 636.069 408.33 621.455 405.138 606.407C402.908 600.951 401.327 594.922 400.244 589.146C408.272 582.176 416.831 575.739 426.287 570.842C428.694 574.448 432.188 576.554 435.738 578.889C436.745 567.632 435.616 556.68 435.106 545.448C434.779 538.261 434.94 530.988 434.949 523.791C434.956 518.614 434.628 513.073 435.441 507.954L435.584 504.895Z"/>
	<path fill="#C93528" transform="scale(1.47032 1.47032)" d="M465.28 672.558C478.025 659.709 494.963 641.817 509.235 631.468L510.228 633.308C508.888 634.278 508.303 635.41 508.092 637.025C507.834 639.006 508.197 643.227 506.736 644.63L506.006 644.397C502.91 646.94 500.255 650.581 497.524 653.562C488.273 663.663 479.65 674.362 470.002 684.098C468.452 680.259 467.018 676.313 465.28 672.558Z"/>
	<path fill="#B02E2E" transform="scale(1.47032 1.47032)" d="M513.645 632.715C514.006 633.507 514.38 634.243 514.596 635.088C512.812 638.273 514.597 705.286 514.965 715L506.494 715.009C506.501 691.882 505.515 667.6 506.736 644.63C508.197 643.227 507.834 639.006 508.092 637.025C508.303 635.41 508.888 634.278 510.228 633.308L511.87 633.848L513.645 632.715Z"/>
	<path fill="#F3842D" transform="scale(1.47032 1.47032)" d="M426.287 570.842C428.694 574.448 432.188 576.554 435.738 578.889C443.564 585.15 451.903 590.615 460.098 596.367L489.31 617.087C495.997 621.776 502.93 626.271 509.235 631.468C494.963 641.817 478.025 659.709 465.28 672.558L424.007 626.029C418.97 620.407 414.176 613.923 408.677 608.789C407.581 607.766 406.503 607.025 405.138 606.407C402.908 600.951 401.327 594.922 400.244 589.146C408.272 582.176 416.831 575.739 426.287 570.842Z"/>
	<path fill="#F8CEAB" transform="scale(1.47032 1.47032)" d="M435.584 504.895C455.98 521.291 484.388 540.633 511.453 540.6C512.581 546.434 511.389 553.097 511.972 559.133L512.015 607.116C512.016 615.982 512.348 625.001 511.87 633.848L510.228 633.308L509.235 631.468C502.93 626.271 495.997 621.776 489.31 617.087L460.098 596.367C451.903 590.615 443.564 585.15 435.738 578.889C436.745 567.632 435.616 556.68 435.106 545.448C434.779 538.261 434.94 530.988 434.949 523.791C434.956 518.614 434.628 513.073 435.441 507.954L435.584 504.895Z"/>
	<path fill="#EE8C5A" transform="scale(1.47032 1.47032)" d="M435.584 504.895C455.98 521.291 484.388 540.633 511.453 540.6C512.581 546.434 511.389 553.097 511.972 559.133C503.592 556.291 494.862 554.742 486.52 551.65C466.017 544.05 452.936 532.649 435.512 520.608Q435.579 514.28 435.441 507.954L435.584 504.895Z"/>
	<path fill="#ACE0F1" transform="scale(1.47032 1.47032)" d="M160.775 914.391C158.06 907.933 163.691 883.638 165.391 876.048C174.159 836.882 186.39 797.908 199.217 759.891C208.245 733.131 217.396 705.787 230.247 680.563C231.237 678.621 232.839 673.145 234.492 672.097L234.723 672.992C234.636 679.499 243.796 702.9 246.16 710.581C248.772 719.07 250.925 727.719 253.299 736.279C259.871 744.818 276.327 823.046 279.276 838.425C280.891 846.853 282.719 862.915 285.471 870.24L296.578 873.393C303.324 875.168 309.855 877.635 316.496 879.752C318.041 883.886 318.258 889.455 318.862 893.844C320.78 907.785 321.801 922.178 324.317 935.987L261.661 935.998C238.645 936.073 209.127 939.022 187.406 930.796C171.808 924.889 167.228 917.397 160.659 902.948C160.775 906.749 161.008 910.593 160.775 914.391Z"/>
	<path fill="#39C4DA" transform="scale(1.47032 1.47032)" d="M253.299 736.279C259.871 744.818 276.327 823.046 279.276 838.425C280.891 846.853 282.719 862.915 285.471 870.24C261.259 864.919 236.257 859.55 211.966 867.849C206.278 869.792 201.22 872.653 195.817 875.185C197.385 873.239 198.949 871.272 200.667 869.454C211.652 857.826 226.677 854.464 242.106 853.968C248.373 825.642 254.174 796.935 254.93 767.856C255.1 761.316 254.958 754.526 254.368 748.007C254.048 744.479 253.08 740.766 253.239 737.242C253.254 736.921 253.279 736.6 253.299 736.279Z"/>
	<path fill="#ACE0F1" transform="scale(1.47032 1.47032)" d="M511.453 540.6C539.06 537.678 565.329 517.3 586.962 501.358C586.468 509.639 585.687 518.242 586.401 526.5C586.467 527.266 586.496 528.04 586.542 528.807C586.863 530.441 586.788 531.972 588.296 532.997C590.124 534.24 592.887 534.612 594.934 535.652C613.345 547.233 628.918 560.702 642.76 577.536C647.377 583.15 651.254 589.436 656.028 594.893C672.65 600.317 688.787 606.724 704.857 613.591C730.686 624.626 757.952 636.52 777.97 656.845C787.221 666.237 793.932 677.393 799.856 689.079C810.746 710.562 818.255 733.575 825.453 756.499Q838.413 797.899 848.904 839.992C853.443 858.042 858.581 876.145 861.782 894.48C861.618 894.531 861.454 894.582 861.291 894.635C857.079 896.016 853.056 898.103 848.975 899.836Q837.935 904.561 826.625 908.596C792.533 920.433 758.195 927.471 722.544 932.615C714.94 933.712 706.723 935.804 699.133 936.104C702.919 917.221 704.734 897.952 708.767 879.11C710.394 870.295 711.577 861.365 713.514 852.613C716.517 833.442 720.113 814.355 723.305 795.214C726.286 777.343 728.838 759.346 732.165 741.54C732.167 738.581 731.58 735.715 729.359 733.601C723.415 727.945 706.44 729.924 698.348 730.012C700.182 725.216 701.446 719.946 703.018 715.027L597.451 714.427C594.242 716.037 585.997 715.256 582.481 714.405C580.935 715.249 579.41 715.078 577.707 715.054L514.965 715C514.597 705.286 512.812 638.273 514.596 635.088C514.38 634.243 514.006 633.507 513.645 632.715L511.87 633.848C512.348 625.001 512.016 615.982 512.015 607.116L511.972 559.133C511.389 553.097 512.581 546.434 511.453 540.6Z"/>
	<path fill="#676A90" transform="scale(1.47032 1.47032)" d="M703.018 715.027C710.986 714.732 718.88 714.866 726.847 715.041C730.274 717.437 732.503 719.765 734.744 723.324C733.677 729.336 732.753 735.46 732.165 741.54C732.167 738.581 731.58 735.715 729.359 733.601C723.415 727.945 706.44 729.924 698.348 730.012C700.182 725.216 701.446 719.946 703.018 715.027Z"/>
	<path fill="#FEFEFE" transform="scale(1.47032 1.47032)" d="M614.172 660.716L615.983 661.972C618.326 681.334 618.22 696.805 608.07 714.115C604.553 714.131 600.961 714.297 597.454 714.093C601.192 703.503 604.132 692.456 607.205 681.652C609.186 674.687 610.712 667.104 614.172 660.716Z"/>
	<path fill="#39C4DA" transform="scale(1.47032 1.47032)" d="M747.178 771.456C747.37 771.892 747.672 772.294 747.753 772.763C748.113 774.839 743.981 792.135 743.291 795.672C740.772 808.592 738.677 821.616 736.454 834.59C734.519 845.886 731.699 858.097 731.957 869.567C723.98 872.305 716.396 875.525 708.767 879.11C710.394 870.295 711.577 861.365 713.514 852.613C717.608 850.121 720.398 845.286 722.503 841.093C726.721 832.693 729.409 823.504 732.354 814.605C737.129 800.176 741.629 785.608 747.178 771.456Z"/>
	<path fill="#1F8DCF" transform="scale(1.47032 1.47032)" d="M747.178 771.456C748.059 766.402 750.902 760.451 752.598 755.486C761.18 730.367 769.51 704.726 782.961 681.694C784.647 678.807 786.65 674.83 789.218 672.646C787.845 677.783 784.299 683.397 782.125 688.345C778.404 696.815 775.356 705.291 772.459 714.072C768.287 718.601 766.971 728.093 765.325 734.04C753.433 777.014 746.924 819.931 743.149 864.294C757.642 857.782 770.771 855.132 786.663 854.902C799.964 857.021 810.926 862.046 819.898 872.351C814.287 869.418 808.794 866.807 802.678 865.05C781.942 859.093 756.671 861.486 736.256 868.035Q734.085 868.741 731.957 869.567C731.699 858.097 734.519 845.886 736.454 834.59C738.677 821.616 740.772 808.592 743.291 795.672C743.981 792.135 748.113 774.839 747.753 772.763C747.672 772.294 747.37 771.892 747.178 771.456Z"/>
	<path fill="#39C4DA" transform="scale(1.47032 1.47032)" d="M743.149 864.294C746.924 819.931 753.433 777.014 765.325 734.04C766.971 728.093 768.287 718.601 772.459 714.072C771.326 721.704 769.947 729.353 769.44 737.057C767.668 764.015 772.276 792.08 778.261 818.287L783.897 841.974C784.879 846.083 786.405 850.714 786.663 854.902C770.771 855.132 757.642 857.782 743.149 864.294Z"/>
	<path fill="#39C4DA" transform="scale(1.47032 1.47032)" d="M594.934 535.652C613.345 547.233 628.918 560.702 642.76 577.536C647.377 583.15 651.254 589.436 656.028 594.893C658.23 600.287 660.635 605.511 662.378 611.088C670.688 637.682 667.334 663.17 664.234 690.135C664.047 691.533 663.84 692.57 663.276 693.884C658.839 692.042 650.45 684.331 645.996 681.17Q631.419 670.9 615.983 661.972L614.172 660.716C610.712 667.104 609.186 674.687 607.205 681.652C604.132 692.456 601.192 703.503 597.454 714.093L597.451 714.427C594.242 716.037 585.997 715.256 582.481 714.405C586.691 705.022 589.248 694.283 592.408 684.456Q607.961 636.945 619.081 588.206C610.962 582.911 603.146 577.103 595.188 571.565L594.778 570.522C595.114 561.209 594.939 551.822 595.002 542.499L594.934 535.652Z"/>
	<path fill="#0F6FA1" transform="scale(1.47032 1.47032)" d="M595.002 542.499C604.437 550.113 613.811 557.259 620.528 567.54C620.35 574.471 619.958 581.322 619.081 588.206C610.962 582.911 603.146 577.103 595.188 571.565L594.778 570.522C595.114 561.209 594.939 551.822 595.002 542.499Z"/>
	<path fill="#0F6FA1" transform="scale(1.47032 1.47032)" d="M622.107 639.374C638.048 645.058 651.104 652.704 658.555 668.57C661.687 675.239 663.791 682.765 664.234 690.135C664.047 691.533 663.84 692.57 663.276 693.884C658.839 692.042 650.45 684.331 645.996 681.17Q631.419 670.9 615.983 661.972L614.172 660.716C616.168 653.469 619.663 646.513 622.107 639.374Z"/>
	<path fill="#DA5646" transform="scale(1.47032 1.47032)" d="M511.453 540.6C539.06 537.678 565.329 517.3 586.962 501.358C586.468 509.639 585.687 518.242 586.401 526.5C586.467 527.266 586.496 528.04 586.542 528.807C586.863 530.441 586.788 531.972 588.296 532.997C590.124 534.24 592.887 534.612 594.934 535.652L595.002 542.499C594.939 551.822 595.114 561.209 594.778 570.522L595.188 571.565C603.146 577.103 610.962 582.911 619.081 588.206Q607.961 636.945 592.408 684.456C589.248 694.283 586.691 705.022 582.481 714.405C580.935 715.249 579.41 715.078 577.707 715.054L514.965 715C514.597 705.286 512.812 638.273 514.596 635.088C514.38 634.243 514.006 633.507 513.645 632.715L511.87 633.848C512.348 625.001 512.016 615.982 512.015 607.116L511.972 559.133C511.389 553.097 512.581 546.434 511.453 540.6Z"/>
	<path fill="#F3842D" transform="scale(1.47032 1.47032)" d="M519.334 628.17C523.41 636.168 539.852 652.782 540.383 660.087C532.902 652.967 524.178 640.139 515.445 635.38L514.596 635.088C514.38 634.243 514.006 633.507 513.645 632.715C515.491 631.087 517.34 629.613 519.334 628.17Z"/>
	<path fill="#B02E2E" transform="scale(1.47032 1.47032)" d="M550.515 670.984C558.708 661.56 593.471 636.591 604.895 630.222C603.673 632.686 584.354 650.865 580.778 654.593Q572.584 663.17 564.551 671.898C561.427 675.344 558.363 679.776 554.645 682.571C552.838 678.906 552.206 674.757 550.515 670.984Z"/>
	<path fill="#EE8C5A" transform="scale(1.47032 1.47032)" d="M514.965 715C514.597 705.286 512.812 638.273 514.596 635.088L515.445 635.38C524.178 640.139 532.902 652.967 540.383 660.087C543.236 664.216 546.109 668.023 549.885 671.356L550.441 671.171L550.515 670.984C552.206 674.757 552.838 678.906 554.645 682.571L552.684 683.328C560.423 693.402 571.67 704.207 577.707 715.054L514.965 715Z"/>
	<path fill="#C93528" transform="scale(1.47032 1.47032)" d="M515.445 635.38C524.178 640.139 532.902 652.967 540.383 660.087C543.236 664.216 546.109 668.023 549.885 671.356L550.441 671.171L550.515 670.984C552.206 674.757 552.838 678.906 554.645 682.571L552.684 683.328C546.979 676.022 540.931 668.996 535.198 661.713C528.396 653.073 521.981 644.215 515.445 635.38Z"/>
	<path fill="#EE8C5A" transform="scale(1.47032 1.47032)" d="M511.453 540.6C539.06 537.678 565.329 517.3 586.962 501.358C586.468 509.639 585.687 518.242 586.401 526.5C586.467 527.266 586.496 528.04 586.542 528.807C586.863 530.441 586.788 531.972 588.296 532.997C590.124 534.24 592.887 534.612 594.934 535.652L595.002 542.499C594.939 551.822 595.114 561.209 594.778 570.522L595.188 571.565C589.361 578.727 573.873 587.913 565.824 593.789L519.334 628.17C517.34 629.613 515.491 631.087 513.645 632.715L511.87 633.848C512.348 625.001 512.016 615.982 512.015 607.116L511.972 559.133C511.389 553.097 512.581 546.434 511.453 540.6Z"/>
	<path fill="#F8CEAB" transform="scale(1.47032 1.47032)" d="M586.542 528.807C586.863 530.441 586.788 531.972 588.296 532.997C590.124 534.24 592.887 534.612 594.934 535.652L595.002 542.499C594.939 551.822 595.114 561.209 594.778 570.522C592.192 570.572 589.653 569.349 587.266 568.46C586.735 559.555 586.705 550.704 586.712 541.789Q586.694 535.297 586.542 528.807Z"/>
	<path fill="#DA5646" transform="scale(1.47032 1.47032)" d="M511.453 540.6C539.06 537.678 565.329 517.3 586.962 501.358C586.468 509.639 585.687 518.242 586.401 526.5C586.467 527.266 586.496 528.04 586.542 528.807Q586.694 535.297 586.712 541.789C565.747 556.838 547.9 565.343 521.524 560.996Q516.728 560.167 511.972 559.133C511.389 553.097 512.581 546.434 511.453 540.6Z"/>
	<path fill="#676A90" transform="scale(1.47032 1.47032)" d="M577.707 715.054C579.41 715.078 580.935 715.249 582.481 714.405C585.997 715.256 594.242 716.037 597.451 714.427L703.018 715.027C701.446 719.946 700.182 725.216 698.348 730.012C706.44 729.924 723.415 727.945 729.359 733.601C731.58 735.715 732.167 738.581 732.165 741.54C728.838 759.346 726.286 777.343 723.305 795.214C720.113 814.355 716.517 833.442 713.514 852.613C711.577 861.365 710.394 870.295 708.767 879.11C704.734 897.952 702.919 917.221 699.133 936.104C698.384 940.153 696.056 947.663 696.937 951.543C695.254 952.066 693.564 952.19 691.806 952.246C683.032 952.529 674.105 952.046 665.311 952.053L598.622 952.075L548.26 952.08C539.207 952.082 529.964 952.455 520.932 951.916C507.757 951.656 494.505 952.005 481.321 952.011L394.337 952.023L360.712 951.891C354.251 951.853 347.658 952.193 341.231 951.525C336.504 951.319 331.709 951.487 326.974 951.49C325.114 947.127 326.53 940.95 324.317 935.987C321.801 922.178 320.78 907.785 318.862 893.844C318.258 889.455 318.041 883.886 316.496 879.752C316.607 869.496 314.448 856.925 311.358 847.1C312.242 839.613 309.976 828.879 308.96 821.321L302.001 771.941C300.577 761.836 298.603 751.328 298.419 741.129C298.291 734.021 300.676 727.626 305.762 722.562C316.306 712.065 341.292 715.947 355.35 716.017C374.073 716.024 392.859 716.35 411.576 715.967C419.073 715.813 426.571 715.199 434.071 714.952C437.034 715.253 439.99 715.064 442.96 714.955C464.126 715.275 485.324 715.021 506.494 715.009L514.965 715L577.707 715.054Z"/>
	<path fill="#FEFEFE" transform="scale(1.47032 1.47032)" d="M505.383 819.52C511.324 819.346 516.896 819.562 522.357 822.269Q522.983 822.58 523.592 822.922Q524.201 823.265 524.792 823.637Q525.383 824.01 525.954 824.412Q526.526 824.814 527.076 825.245Q527.626 825.675 528.154 826.133Q528.682 826.591 529.186 827.075Q529.69 827.559 530.168 828.068Q530.647 828.577 531.1 829.11Q531.552 829.642 531.977 830.197Q532.402 830.752 532.798 831.327Q533.194 831.903 533.561 832.497Q533.927 833.092 534.263 833.705Q534.599 834.318 534.904 834.947Q535.208 835.575 535.48 836.219Q535.753 836.862 535.992 837.519Q536.231 838.175 536.437 838.843C538.577 845.772 537.922 853.848 534.32 860.187C530.077 867.656 523.077 871.262 515.106 873.433C509.852 874.111 504.636 873.862 499.692 871.78Q499.091 871.526 498.502 871.242Q497.914 870.959 497.341 870.647Q496.767 870.335 496.21 869.995Q495.652 869.655 495.112 869.288Q494.572 868.921 494.051 868.528Q493.53 868.134 493.029 867.716Q492.527 867.297 492.048 866.855Q491.568 866.412 491.11 865.946Q490.652 865.481 490.218 864.993Q489.784 864.505 489.375 863.997Q488.965 863.488 488.582 862.96Q488.198 862.432 487.84 861.885Q487.483 861.339 487.153 860.775Q486.823 860.212 486.521 859.633Q486.219 859.054 485.946 858.461Q485.673 857.868 485.43 857.262Q485.162 856.616 484.926 855.958Q484.691 855.299 484.489 854.63Q484.287 853.96 484.119 853.282Q483.951 852.603 483.818 851.917Q483.684 851.23 483.586 850.538Q483.487 849.846 483.423 849.149Q483.359 848.453 483.33 847.754Q483.302 847.056 483.308 846.357Q483.315 845.657 483.357 844.959Q483.398 844.261 483.475 843.566Q483.552 842.871 483.664 842.181Q483.776 841.491 483.922 840.807Q484.068 840.123 484.249 839.448Q484.43 838.772 484.644 838.107Q484.858 837.441 485.106 836.787Q485.354 836.134 485.634 835.493C489.577 826.617 496.761 822.704 505.383 819.52Z"/>
	<defs>
		<linearGradient id="gradient_0" gradientUnits="userSpaceOnUse" x1="660.35156" y1="643.41852" x2="277.3107" y2="862.08118">
			<stop offset="0" stop-color="#ACA6BB"/>
			<stop offset="1" stop-color="#87BDED"/>
		</linearGradient>
	</defs>
	<path fill="url(#gradient_0)" transform="scale(1.47032 1.47032)" d="M577.707 715.054C579.41 715.078 580.935 715.249 582.481 714.405C585.997 715.256 594.242 716.037 597.451 714.427L703.018 715.027C701.446 719.946 700.182 725.216 698.348 730.012L450.981 729.306L374.19 729.015C361.408 728.954 348.629 727.8 335.87 729.1C329.561 729.742 324.317 731.416 319.746 736.097C314.914 741.045 314.153 746.254 314.368 752.847C314.711 763.364 316.761 774.116 318.189 784.541L324.919 834.288L334.558 904.87C336.665 920.454 338.525 936.027 341.231 951.525C336.504 951.319 331.709 951.487 326.974 951.49C325.114 947.127 326.53 940.95 324.317 935.987C321.801 922.178 320.78 907.785 318.862 893.844C318.258 889.455 318.041 883.886 316.496 879.752C316.607 869.496 314.448 856.925 311.358 847.1C312.242 839.613 309.976 828.879 308.96 821.321L302.001 771.941C300.577 761.836 298.603 751.328 298.419 741.129C298.291 734.021 300.676 727.626 305.762 722.562C316.306 712.065 341.292 715.947 355.35 716.017C374.073 716.024 392.859 716.35 411.576 715.967C419.073 715.813 426.571 715.199 434.071 714.952C437.034 715.253 439.99 715.064 442.96 714.955C464.126 715.275 485.324 715.021 506.494 715.009L514.965 715L577.707 715.054Z"/>
	<path fill="#334080" transform="scale(1.47032 1.47032)" d="M698.348 730.012C706.44 729.924 723.415 727.945 729.359 733.601C731.58 735.715 732.167 738.581 732.165 741.54C728.838 759.346 726.286 777.343 723.305 795.214C720.113 814.355 716.517 833.442 713.514 852.613C711.577 861.365 710.394 870.295 708.767 879.11C704.734 897.952 702.919 917.221 699.133 936.104C698.384 940.153 696.056 947.663 696.937 951.543C695.254 952.066 693.564 952.19 691.806 952.246C683.032 952.529 674.105 952.046 665.311 952.053L598.622 952.075L548.26 952.08C539.207 952.082 529.964 952.455 520.932 951.916C519.68 950.966 517.865 951.096 516.349 950.982L516.513 950.636L515.53 950.856C517.685 948.438 535.657 941.681 539.97 939.5C621.44 898.295 670.727 813.933 698.348 730.012Z"/>
	<path fill="#240B23" transform="scale(1.47032 1.47032)" d="M390.065 124.325C391.362 111.273 400.309 99.1124 410.212 91.0077C437.1 69.0019 478.08 71.0853 510.775 74.5212C565.349 80.2564 639.752 104.339 675.373 148.375C685.695 161.135 692.095 175.867 696.119 191.676C698.083 197.05 698.52 202.809 699.147 208.455C692.218 199.339 681.08 184.208 669.228 181.893C671.325 189.041 672.061 196.751 672.547 204.166C674.627 235.925 667.129 265.256 658.536 295.543C651.803 296.179 646.737 297.472 640.495 299.959L640.433 311.012C640.138 315.288 639.939 319.535 639.891 323.821C638.468 336.4 638.489 349.234 638.302 361.881C638.176 364.418 637.992 366.967 637.969 369.507C636.337 394.354 636.899 427.828 628.02 450.692C624.186 460.566 618.215 469.656 611.375 477.703C606.627 483.29 601.39 488.317 595.94 493.2C592.995 495.838 589.59 498.431 586.962 501.358C565.329 517.3 539.06 537.678 511.453 540.6C484.388 540.633 455.98 521.291 435.584 504.895Q425.853 496.483 416.568 487.581C383.135 454.877 382.94 412.439 382.503 368.941C382.506 357.71 381.861 346.424 381.41 335.202C381.065 326.632 381.047 317.867 380.113 309.343L379.878 300.944C374.342 299.301 368.633 298.448 362.909 297.779C353.629 274.145 347.619 249.162 343.524 224.139C340.199 203.822 336.214 178.951 349.246 161.105C359.151 147.542 373.624 142.422 389.598 139.821C389.409 134.64 389.465 129.477 390.065 124.325Z"/>
	<path fill="#EE8C5A" transform="scale(1.47032 1.47032)" d="M526.372 422.572C534.056 421.735 547.02 418.424 553.692 423.623C557.693 426.741 560.487 432.402 560.949 437.41C561.428 442.604 559.302 447.168 555.999 451.051C551.907 455.863 546.093 459.312 540.588 462.263C536.093 464.286 531.427 465.833 526.739 467.333C524.257 462.858 522.128 458.247 519.985 453.606C524.494 451.035 528.275 448.671 531.788 444.817C525.547 444.658 519.457 446.71 513.337 446.402L513.094 446.178C512.818 442.478 513.259 438.712 514.732 435.296C522.535 433.834 530.338 434.221 538.066 431.597C540.043 430.926 543.242 429.798 544.184 427.852C540.639 425.65 530.627 429.193 526.599 429.973C525.516 427.006 525.406 425.608 526.372 422.572Z"/>
	<path fill="#3F1140" transform="scale(1.47032 1.47032)" d="M513.337 446.402C519.457 446.71 525.547 444.658 531.788 444.817C528.275 448.671 524.494 451.035 519.985 453.606C522.128 458.247 524.257 462.858 526.739 467.333C531.427 465.833 536.093 464.286 540.588 462.263C540.495 480.383 539.806 498.456 540.054 516.585C534.326 520.839 528.041 523.975 521.438 526.629C518.465 527.824 514.443 528.831 511.875 530.626C512.276 520.742 510.759 450.487 513.337 446.402Z"/>
	<path fill="#8D1543" transform="scale(1.47032 1.47032)" d="M384.987 149.701L389.962 149.471C395.245 160.053 400.543 169.944 407.52 179.536C397.497 182.941 388.135 187.604 382.561 197.054C373.32 212.723 377.954 231.148 382.141 247.578L378.661 245.348C363.304 232.458 349.3 209.18 347.497 188.964C346.631 179.244 349.111 169.749 355.47 162.227C363.013 153.304 373.822 150.7 384.987 149.701Z"/>
	<path fill="#EE8C5A" transform="scale(1.47032 1.47032)" d="M613.259 307.206C619.2 305.746 625.333 304.364 630.978 301.978Q630.785 327.115 629.608 352.225C629.138 364.424 629.869 377.326 626.421 389.139Q625.798 391.213 625.048 393.244Q624.298 395.275 623.422 397.255Q622.547 399.235 621.551 401.158Q620.554 403.08 619.44 404.936Q618.326 406.793 617.099 408.576Q615.871 410.36 614.535 412.064Q613.199 413.768 611.76 415.385Q610.321 417.003 608.784 418.528C599.019 428.302 587.302 434.827 574.593 439.967C574.169 435.655 573.415 431.134 573.466 426.809C585.667 416.992 593.483 401.844 598.965 387.467C602.093 379.263 612.731 347.105 609.813 340.612C614.161 329.106 613.69 319.301 613.259 307.206Z"/>
	<path fill="#EE8C5A" transform="scale(1.47032 1.47032)" d="M565.584 189.969C577.683 185.44 589.77 184.243 601.844 189.76C611.338 194.098 616.667 202.089 620.168 211.634C629.156 236.141 630.276 266.715 630.6 292.596L613.878 296.594C612.009 291.613 609.446 288.73 605.299 285.386L605.6 284.864L610.542 288.448Q609.594 284.235 608.127 280.173C604.929 271.572 600.581 266.213 592.073 262.334C592.114 262.196 592.17 262.062 592.197 261.92C592.839 258.525 590.68 252.37 589.876 248.959C583.932 223.763 580.069 212.237 565.584 189.969Z"/>
	<path fill="#5A133C" transform="scale(1.47032 1.47032)" d="M619.004 137.297C648.011 146.217 663.724 154.128 683.998 177.744C687.748 182.113 691.117 188.845 696.119 191.676C698.083 197.05 698.52 202.809 699.147 208.455C692.218 199.339 681.08 184.208 669.228 181.893C668.859 181.188 668.519 180.572 667.913 180.037C663.499 176.137 650.251 172.061 644.265 169.961C624.382 162.985 600.573 161.026 581.964 172.603C575.801 176.436 570.595 181.697 564.378 185.471C545.996 196.629 523.342 203.645 501.879 204.72C524.673 176.648 551.78 149.375 588.088 140.468C591.012 139.751 593.923 139.194 596.929 138.968C602.09 138.578 614.248 139.344 618.454 137.596C618.646 137.515 618.821 137.396 619.004 137.297Z"/>
	<path fill="#F8CEAB" transform="scale(1.47032 1.47032)" d="M539.687 291.739C547.016 291.58 554.423 291.983 561.766 291.998C572.887 292.019 583.938 291.686 595.049 291.446C600.724 291.323 603.494 291.509 607.734 295.59C611.693 306.059 611.694 322.363 608.743 333.109C606.543 341.119 601.894 347.935 594.618 352.095C592.817 352.936 590.904 353.659 588.969 354.121C580.541 356.136 557.745 356.024 549.218 354.182Q546.739 353.653 544.393 352.692Q542.047 351.731 539.909 350.368C533.476 346.253 529.365 339.937 527.802 332.501C526.069 324.257 525.076 303.227 530.047 296.19C532.258 293.059 536.174 292.392 539.687 291.739Z"/>
	<path fill="#141F62" transform="scale(1.47032 1.47032)" d="M549.255 303.098C549.793 301.73 550.388 299.715 551.365 298.609C552.473 297.353 553.424 297.346 555.011 297.188C559.949 296.696 577.822 295.754 581.476 298.738C582.026 299.986 582.134 300.134 581.903 301.461L579.681 300.959C571.759 301.261 563.712 300.825 555.831 301.414C553.219 301.35 551.459 301.628 549.255 303.098Z"/>
	<path fill="#2BBBFA" transform="scale(1.47032 1.47032)" d="M579.681 300.959L581.903 301.461C581.959 301.723 582.009 301.987 582.071 302.247C582.458 303.868 583.584 305.399 584.426 306.836C588.348 313.532 588.938 319.207 584.773 326.238C581.808 331.243 576.68 334.746 571.053 336.083Q570.569 336.202 570.08 336.297Q569.591 336.392 569.098 336.462Q568.605 336.533 568.109 336.579Q567.613 336.624 567.115 336.646Q566.618 336.667 566.119 336.663Q565.621 336.659 565.124 336.631Q564.627 336.602 564.131 336.549Q563.636 336.496 563.144 336.418Q562.652 336.34 562.165 336.238Q561.677 336.135 561.195 336.009Q560.713 335.883 560.238 335.732Q559.764 335.582 559.297 335.409Q558.83 335.235 558.372 335.038Q557.914 334.842 557.467 334.622Q557.02 334.403 556.584 334.162Q556.148 333.921 555.725 333.658C550.687 330.518 547.338 325.203 546.032 319.469C545.129 315.5 545.075 310.432 547.187 306.833C547.61 305.582 548.579 304.252 549.255 303.098C551.459 301.628 553.219 301.35 555.831 301.414C556.583 303.239 556.833 305.295 558.536 306.308C556.042 310.324 553.412 314.492 554.396 319.452C554.785 321.416 555.7 323.125 556.684 324.845C560.066 326.948 563.883 328.893 568.026 327.971C569.66 327.608 571.734 326.935 573.014 325.879C573.907 326.188 573.576 326.16 574.596 326.125C578.376 325.999 581.675 323.422 584.197 320.859C587.812 311.068 583.138 309.434 579.985 301.742C579.879 301.483 579.782 301.22 579.681 300.959Z"/>
	<path fill="#ACE0F1" transform="scale(1.47032 1.47032)" d="M549.255 303.098C551.459 301.628 553.219 301.35 555.831 301.414C556.583 303.239 556.833 305.295 558.536 306.308C556.042 310.324 553.412 314.492 554.396 319.452C554.785 321.416 555.7 323.125 556.684 324.845C553.867 324.528 551.49 323.245 549.032 321.944C546.873 318.178 546.145 315.458 546.81 311.097C546.98 309.987 547.148 308.935 547.173 307.81L547.187 306.833C547.61 305.582 548.579 304.252 549.255 303.098Z"/>
	<path fill="#141F62" transform="scale(1.47032 1.47032)" d="M555.831 301.414C563.712 300.825 571.759 301.261 579.681 300.959C579.782 301.22 579.879 301.483 579.985 301.742C583.138 309.434 587.812 311.068 584.197 320.859C581.675 323.422 578.376 325.999 574.596 326.125C573.576 326.16 573.907 326.188 573.014 325.879C571.734 326.935 569.66 327.608 568.026 327.971C563.883 328.893 560.066 326.948 556.684 324.845C555.7 323.125 554.785 321.416 554.396 319.452C553.412 314.492 556.042 310.324 558.536 306.308C556.833 305.295 556.583 303.239 555.831 301.414Z"/>
	<path fill="#FEFEFE" transform="scale(1.47032 1.47032)" d="M559.374 310.332C559.553 310.494 559.739 310.65 559.912 310.82C561.105 311.998 561.785 313.28 561.671 315.005C561.586 316.309 560.823 316.931 559.879 317.663C559.344 317.438 558.608 317.191 558.111 316.866C556.97 316.121 556.966 315.827 556.631 314.567C557.107 312.824 558.229 311.69 559.374 310.332Z"/>
	<path fill="#FEFEFE" transform="scale(1.47032 1.47032)" d="M555.831 301.414C563.712 300.825 571.759 301.261 579.681 300.959C579.782 301.22 579.879 301.483 579.985 301.742C583.138 309.434 587.812 311.068 584.197 320.859C581.675 323.422 578.376 325.999 574.596 326.125C573.576 326.16 573.907 326.188 573.014 325.879C573.796 324.737 574.622 323.543 575.192 322.275C576.07 320.322 577.051 318.054 576.085 315.976C575.09 313.836 571.985 313.692 570.056 312.832C568.853 312.295 568.472 311.911 567.956 310.724C568.182 307.787 570.207 305.577 572.072 303.467C566.804 303.404 563.224 303.751 558.536 306.308C556.833 305.295 556.583 303.239 555.831 301.414Z"/>
	<path fill="#F8CEAB" transform="scale(1.47032 1.47032)" d="M414.374 291.488Q432.719 291.873 451.068 291.692C458.905 291.615 467.147 290.936 474.91 291.987C478.07 292.415 481.736 293.635 483.659 296.364C488.635 303.425 487.637 324.273 486.113 332.672C484.519 341.456 479.921 346.917 472.779 351.817C472.576 351.939 472.375 352.065 472.17 352.182C463.588 357.088 433.597 356.404 424.086 353.519C416.787 351.306 411.001 346.534 407.5 339.738C402.939 330.888 402.027 309.01 405.251 299.821C406.968 294.927 410.031 293.685 414.374 291.488Z"/>
	<path fill="#141F62" transform="scale(1.47032 1.47032)" d="M434.104 302.294C433.813 301.943 433.51 301.601 433.247 301.228C432.43 300.07 432.306 299.093 432.536 297.732C436.295 296.118 459.413 296.26 463.837 297.206C465.083 297.473 465.54 297.985 466.205 299.001L465.704 300.173C464.217 301.317 463.836 301.258 462.031 301.424C453.383 301.081 442.429 299.615 434.104 302.294Z"/>
	<path fill="#2BBBFA" transform="scale(1.47032 1.47032)" d="M463.629 304.674C464.823 304.893 465.801 305.952 466.634 306.824C468.826 309.12 469.385 312.887 469.332 315.924C469.225 322.003 466.355 327.183 461.917 331.204C457.94 334.806 452.813 336.688 447.438 336.19C441.373 335.628 435.688 332.179 431.995 327.4C428.692 323.126 426.441 317.195 427.357 311.744C428.008 307.876 430.147 305.206 433.314 303.045C431.054 306.594 428.481 309.706 429.577 314.162C430.737 318.877 434.579 323.808 438.861 326.089C440.214 326.81 441.314 326.932 442.827 326.997C448.166 327.866 452.182 327.618 457.207 325.731C458.621 325.726 460.205 325.052 461.403 324.33C464.329 322.565 466.806 319.023 467.61 315.718C468.364 312.615 467.236 310.353 465.593 307.77L463.629 304.674Z"/>
	<path fill="#FEFEFE" transform="scale(1.47032 1.47032)" d="M434.104 302.294C442.429 299.615 453.383 301.081 462.031 301.424C462.589 302.473 463.275 303.54 463.629 304.674L465.593 307.77C467.236 310.353 468.364 312.615 467.61 315.718C466.806 319.023 464.329 322.565 461.403 324.33C460.205 325.052 458.621 325.726 457.207 325.731C452.182 327.618 448.166 327.866 442.827 326.997C441.314 326.932 440.214 326.81 438.861 326.089C434.579 323.808 430.737 318.877 429.577 314.162C428.481 309.706 431.054 306.594 433.314 303.045L434.104 302.294Z"/>
	<path fill="#141F62" transform="scale(1.47032 1.47032)" d="M442.827 326.997C440.984 325.168 439.684 323.419 438.945 320.895C437.931 317.432 438.484 313.725 440.253 310.605C442.618 306.434 445.874 304.664 450.368 303.492C452.126 303.816 453.842 304.296 455.569 304.754C454.934 315.939 458.985 311.217 461.933 317.434C462.082 320.682 459.148 323.372 457.207 325.731C452.182 327.618 448.166 327.866 442.827 326.997Z"/>
	<path fill="#FEFEFE" transform="scale(1.47032 1.47032)" d="M444.169 309.755C445.079 309.909 446.12 310.098 446.907 310.627C447.84 311.254 448.328 312.121 448.311 313.24C448.283 315.007 447.009 316.269 445.929 317.525C444.119 316.917 443.267 316.425 442.3 314.796C442.258 312.845 443.254 311.415 444.169 309.755Z"/>
	<path fill="#5A133C" transform="scale(1.47032 1.47032)" d="M391.721 366.022C399.064 395.056 408.441 420.331 435.576 436.326C438.062 437.792 440.672 439.038 443.257 440.318C442.744 429.302 444.848 419.729 452.422 411.345C460.796 402.075 473.78 397.728 486.009 397.169C492.893 396.854 500.28 397.944 505.462 402.91C506.867 404.257 507.77 405.769 508.699 407.458L508.878 407.777L508.91 411.275C510.293 415.463 512.139 418.411 516.208 420.426C519.291 421.952 522.953 422.568 526.372 422.572C525.406 425.608 525.516 427.006 526.599 429.973C530.627 429.193 540.639 425.65 544.184 427.852C543.242 429.798 540.043 430.926 538.066 431.597C530.338 434.221 522.535 433.834 514.732 435.296C513.259 438.712 512.818 442.478 513.094 446.178L513.337 446.402C510.759 450.487 512.276 520.742 511.875 530.626L511.43 530.903C505.988 530.682 501.156 529.385 495.998 527.694C462.084 516.57 418.484 483.059 402.472 450.967C399.692 445.394 397.386 439.679 395.988 433.597C393.285 421.839 388.133 376.679 391.721 366.022Z"/>
	<defs>
		<linearGradient id="gradient_1" gradientUnits="userSpaceOnUse" x1="512.91003" y1="410.73151" x2="466.11234" y2="454.94092">
			<stop offset="0" stop-color="#FDB38A"/>
			<stop offset="1" stop-color="#F9E2BD"/>
		</linearGradient>
	</defs>
	<path fill="url(#gradient_1)" transform="scale(1.47032 1.47032)" d="M490.335 467.097C482.941 464.478 475.424 461.729 468.779 457.488C462.994 453.795 457.035 448.251 455.725 441.232C454.853 436.557 456.808 431.447 459.455 427.648C467.495 416.107 483.906 424.026 495.391 421.677C502.164 420.292 505.29 416.742 508.91 411.275C510.293 415.463 512.139 418.411 516.208 420.426C519.291 421.952 522.953 422.568 526.372 422.572C525.406 425.608 525.516 427.006 526.599 429.973C530.627 429.193 540.639 425.65 544.184 427.852C543.242 429.798 540.043 430.926 538.066 431.597C530.338 434.221 522.535 433.834 514.732 435.296C513.259 438.712 512.818 442.478 513.094 446.178C502.648 445.872 493.047 444.697 482.916 442.096C486.695 447.176 491.044 450.114 496.33 453.508C494.533 458.144 492.46 462.607 490.335 467.097Z"/>
	<path fill="#B02E2E" transform="scale(1.47032 1.47032)" d="M514.732 435.296C506.144 436.132 481.877 435.616 474.728 430.899C473.253 429.926 471.918 428.821 471.509 427.085C472.253 426.289 472.896 426.198 473.998 426.22C479.361 426.327 485.618 428.95 490.978 430.065C502.58 432.476 514.967 431.361 526.599 429.973C530.627 429.193 540.639 425.65 544.184 427.852C543.242 429.798 540.043 430.926 538.066 431.597C530.338 434.221 522.535 433.834 514.732 435.296Z"/>
	<defs>
		<linearGradient id="gradient_2" gradientUnits="userSpaceOnUse" x1="578.14117" y1="423.75891" x2="387.29099" y2="307.81308">
			<stop offset="0" stop-color="#F8C595"/>
			<stop offset="1" stop-color="#FCE5C6"/>
		</linearGradient>
	</defs>
	<path fill="url(#gradient_2)" transform="scale(1.47032 1.47032)" d="M387.873 303.592C391.853 305.176 396.004 306.429 400.033 307.906C399.493 321.968 398.579 338.015 409.058 349.022C416.66 357.007 426.97 358.58 437.468 358.735C451.947 358.95 469.334 360.756 480.545 349.682C490.164 340.182 490.499 326.755 490.498 314.094C494.568 312.023 498.178 310.163 502.74 309.359C510.299 308.027 516.073 309.946 522.172 314.237C524.012 320.6 523.674 327.298 525.177 333.722C527.096 341.921 532.473 349.542 539.702 353.962Q540.906 354.689 542.171 355.305Q543.435 355.921 544.749 356.423Q546.064 356.924 547.417 357.306Q548.771 357.689 550.153 357.949C558.499 359.563 582.42 359.486 590.505 357.36C599.92 354.884 605.061 348.526 609.813 340.612C612.731 347.105 602.093 379.263 598.965 387.467C593.483 401.844 585.667 416.992 573.466 426.809C569.482 417.054 564.753 409.783 555.561 404.246C545.997 398.486 532.035 395.158 521.041 398.087C515.192 399.646 511.801 402.695 508.878 407.777L508.699 407.458C507.77 405.769 506.867 404.257 505.462 402.91C500.28 397.944 492.893 396.854 486.009 397.169C473.78 397.728 460.796 402.075 452.422 411.345C444.848 419.729 442.744 429.302 443.257 440.318C440.672 439.038 438.062 437.792 435.576 436.326C408.441 420.331 399.064 395.056 391.721 366.022C390.514 354.929 389.333 343.618 388.833 332.473C388.401 322.851 388.588 313.199 387.873 303.592Z"/>
	<path fill="#EE8C5A" transform="scale(1.47032 1.47032)" d="M515.893 315.481L516.14 316.269C519.075 325.813 516.694 336.029 520.431 345.458C525.884 359.215 537.91 367.782 538.2 383.654C536.185 387.364 534.123 388.792 530.354 390.595C527.253 391.083 524.542 390.784 521.457 390.409C517.105 392.321 512.59 394.176 507.95 395.238C504.22 394.223 500.839 392.141 497.048 391.294C492.21 390.212 488.09 391.945 483.145 389.865C481.852 387.322 480.876 385.242 481.59 382.379C482.762 380.656 483.948 380.098 485.941 379.773C492.315 378.735 503.363 383.464 508.195 378.201C514.063 371.81 511.59 337.949 512.752 327.64C513.24 323.316 514.193 319.498 515.893 315.481Z"/>
	<path fill="#B02E2E" transform="scale(1.47032 1.47032)" d="M508.668 391.287C508.864 391.242 509.061 391.201 509.257 391.152C514.078 389.944 522.321 383.48 526.984 386.321C528.543 387.272 529.152 388.473 530.021 390.017C530.13 390.211 530.243 390.402 530.354 390.595C527.253 391.083 524.542 390.784 521.457 390.409C517.105 392.321 512.59 394.176 507.95 395.238C504.22 394.223 500.839 392.141 497.048 391.294C492.21 390.212 488.09 391.945 483.145 389.865C486.401 387.347 490.35 385.6 494.538 386.206C499.62 386.941 503.613 390.41 508.668 391.287Z"/>
	<path fill="#8D1543" transform="scale(1.47032 1.47032)" d="M390.065 124.325C391.362 111.273 400.309 99.1124 410.212 91.0077C437.1 69.0019 478.08 71.0853 510.775 74.5212C565.349 80.2564 639.752 104.339 675.373 148.375C685.695 161.135 692.095 175.867 696.119 191.676C691.117 188.845 687.748 182.113 683.998 177.744C663.724 154.128 648.011 146.217 619.004 137.297C589.201 127.449 560.703 123.527 530.148 133.547C506.083 141.438 482.205 156.777 470.352 179.812C466.809 186.695 465.275 194.308 462.035 200.72L460.838 201.075C459.898 200.911 459.301 200.764 458.504 200.198C453.212 196.436 450.622 182.288 449.886 176.279C447.722 158.635 453.987 140.47 464.915 126.642C482.331 104.602 511.211 95.4372 538.082 92.2198C511.263 87.4156 469.532 87.7965 445.391 100.903C433.2 107.522 422.934 118.119 419.047 131.669C413.061 152.541 422.789 171.876 432.669 189.651C419.538 180.516 403.538 157.69 397.597 142.749C395.345 137.087 394.177 128.823 390.065 124.325Z"/>
	<path fill="#F8CEAB" transform="scale(1.47032 1.47032)" d="M425.972 190.903C433.604 194.292 441.239 197.927 449.175 200.543C476.445 209.532 511.748 208.494 539.278 200.65C548.552 198.008 557.013 194.29 565.584 189.969C580.069 212.237 583.932 223.763 589.876 248.959C590.68 252.37 592.839 258.525 592.197 261.92C592.17 262.062 592.114 262.196 592.073 262.334C600.581 266.213 604.929 271.572 608.127 280.173Q609.594 284.235 610.542 288.448L605.6 284.864L605.299 285.386C603.998 285 602.635 284.83 601.281 284.773C591.189 284.343 581.005 284.922 570.903 284.986C558.268 285.065 543.961 283.341 531.655 286.766C529.814 287.278 528.551 288.323 527.188 289.612C522.014 294.504 521.447 300.375 521.159 307.069C510.588 303.828 502.637 303.317 492.044 306.819C492.368 303.87 492.442 300.632 491.776 297.727C490.877 293.796 488.018 289.804 484.476 287.804C481.843 286.317 477.876 285.864 474.866 285.617C468.468 285.094 461.927 285.508 455.506 285.475C443.832 285.414 419.099 283.562 409.07 287.022C404.223 288.694 401.333 293.975 399.176 298.301C395.732 296.579 392.378 294.88 388.705 293.694C388.767 273.956 387.598 245.832 392.874 227.165C394.386 221.819 396.711 216.905 399.629 212.186C406.157 201.633 413.591 193.846 425.972 190.903Z"/>
	<path fill="#3F1140" transform="scale(1.47032 1.47032)" d="M537.024 262.212C546.488 262.913 556.435 262.768 565.909 262.362C574.594 261.99 583.474 260.624 592.073 262.334C600.581 266.213 604.929 271.572 608.127 280.173Q609.594 284.235 610.542 288.448L605.6 284.864C602.955 281.5 599.151 278.17 595.571 275.834C592.495 273.827 589.559 272.889 585.871 272.744C575.826 272.352 548.193 279.521 537.004 281.968L537.024 262.212Z"/>
	<path fill="#3F1140" transform="scale(1.47032 1.47032)" d="M427.35 260.717C435.227 260.582 443.231 262.005 451.112 262.402C460.125 262.857 469.302 262.518 478.332 262.494L478.173 282.516C469.007 279.887 459.693 277.877 450.362 275.934C445.879 274.811 441.384 273.639 436.824 272.869C422.781 270.5 413.596 276.05 402.644 283.904C403.486 279.254 404.353 274.763 407.064 270.763C411.707 263.912 419.72 261.992 427.35 260.717Z"/>
</svg>
